<svg xmlns="http://www.w3.org/2000/svg" xmlns:xlink="http://www.w3.org/1999/xlink" id="svg57" width="1024.648" height="1044.879"><defs id="defs39"><linearGradient id="a"><stop stop-color="#fff" stop-opacity="0" offset="0" id="stop2"/><stop stop-color="#fff" stop-opacity=".039" offset=".5" id="stop4"/><stop stop-color="#fff" stop-opacity="0" offset="1" id="stop6"/></linearGradient><style id="style9"></style><style id="style11"></style><style id="style13"></style><style id="style15"></style><linearGradient id="h" x1="318.58" x2="351" y1="-62.641" y2="820.59" gradientTransform="matrix(1.2672 0 0 .50356 .835 .6)" gradientUnits="userSpaceOnUse"><stop stop-color="#fff" stop-opacity=".392" offset="0" id="stop17"/><stop stop-color="#fefeff" stop-opacity=".055" offset="1" id="stop19"/></linearGradient><linearGradient id="i" x1="1355.3" x2="2398.3" y1="188.12" y2="264.83" gradientTransform="matrix(.43267 0 0 1.4748 .835 .6)" gradientUnits="userSpaceOnUse"><stop stop-color="#fff" stop-opacity=".118" offset="0" id="stop22"/><stop stop-color="#fefeff" stop-opacity="0" offset="1" id="stop24"/></linearGradient><linearGradient id="j" x1="1017.1" x2="469.9" y1="628.88" y2="310.35" gradientTransform="matrix(.8508 0 0 .75003 .835 .6)" gradientUnits="userSpaceOnUse"><stop stop-color="#8e8e8e" stop-opacity=".059" offset="0" id="stop27"/><stop stop-color="#7a7a7a" stop-opacity="0" offset="1" id="stop29"/></linearGradient><linearGradient id="k" x1="929.92" x2="1407.9" y1="365.15" y2="550.31" gradientTransform="matrix(-.60923 0 0 -1.0474 1464.2 769.06)" gradientUnits="userSpaceOnUse" xlink:href="#a"/><linearGradient id="l" x1="929.92" x2="1407.9" y1="365.15" y2="550.31" gradientTransform="matrix(.60923 0 0 1.0474 170.64 .6)" gradientUnits="userSpaceOnUse" xlink:href="#a"/><linearGradient id="b" x1="981.15" x2="801.8" y1="-87.447" y2="389.01" gradientUnits="userSpaceOnUse"><stop stop-opacity=".734" offset="0" id="stop34"/><stop stop-opacity=".086" offset="1" id="stop36"/></linearGradient><linearGradient gradientTransform="matrix(-1 0 0 -.87664 1023.2 768.525)" id="b-3" x1="1130.721" x2="801.8" y1="-248.879" y2="389.01" gradientUnits="userSpaceOnUse"><stop stop-opacity=".734" offset="0" id="stop34-6"/><stop stop-opacity=".086" offset="1" id="stop36-7"/></linearGradient><linearGradient xlink:href="#j" id="linearGradient1007" gradientUnits="userSpaceOnUse" gradientTransform="matrix(.8508 0 0 .75003 .835 .6)" x1="1017.1" y1="628.88" x2="469.9" y2="310.35"/><linearGradient xlink:href="#i" id="linearGradient1009" gradientUnits="userSpaceOnUse" gradientTransform="matrix(.43267 0 0 1.4748 .835 .6)" x1="1355.3" y1="188.12" x2="2398.3" y2="264.83"/><linearGradient xlink:href="#h" id="linearGradient1011" gradientUnits="userSpaceOnUse" gradientTransform="matrix(1.2672 0 0 .50356 .835 .6)" x1="318.58" y1="-62.641" x2="351" y2="820.59"/><linearGradient xlink:href="#b" id="linearGradient1013" gradientUnits="userSpaceOnUse" x1="981.15" y1="-87.447" x2="801.8" y2="389.01"/><linearGradient xlink:href="#b-3" id="linearGradient1015" gradientUnits="userSpaceOnUse" gradientTransform="matrix(-1 0 0 -.87664 1023.2 768.525)" x1="1130.721" y1="-248.879" x2="767.788" y2="372.219"/><linearGradient id="l-2" x1="929.92" x2="1407.9" y1="365.15" y2="550.31" gradientTransform="matrix(.60923 0 0 1.0474 170.64 .6)" gradientUnits="userSpaceOnUse" xlink:href="#a"/><linearGradient id="k-9" x1="929.92" x2="1407.9" y1="365.15" y2="550.31" gradientTransform="matrix(-.60923 0 0 -1.0474 1464.2 769.06)" gradientUnits="userSpaceOnUse" xlink:href="#a"/></defs><g id="g898" transform="matrix(.99964 0 0 1.35875 .512 .68)" stroke="#000" stroke-opacity=".733"><path id="rect43" fill="#195b7e" d="M0 0h1024v768H0z"/><path id="path45" d="M931.07 0c79.453 248.57-188.97 510.08-203.12 767.8h210.73c-89.762-177.83-99.256-379.16 84.512-609.48V0h-92.125z" fill="url(#l)" fill-rule="evenodd"/><path id="path47" d="M663.48.2c161.13 445.46 12.567 646.38-198.9 767.8h195.78C723.126 495.35 847.99 259.07 858.06.2z" fill="url(#k)" fill-rule="evenodd"/><path id="path49" d="M798.45.696c109.58 193.24-.424 411.94-87.004 605.957-86.58 194.016-289.901 151.307-446.259 157.673-124.77-61.959 177.08-171 236.51-236.19 169.44-109.22 356.52-244.19 400.65-453.3 7.112-57.583-46.867-70.294-103.9-74.134z" fill="url(#linearGradient1007)" fill-rule="evenodd"/><path id="path51" d="M952.59.556l70.184.065c-61.606 271.86-126.26 482.148.466 766.878l-174 .168C707.31 578.497 894.493 207.277 952.59.557z" fill="url(#linearGradient1009)" fill-rule="evenodd"/><path id="path53" d="M0 .6v406.91c502.58-9.283 509.94-151.92 1024-158.11V.6z" fill="url(#linearGradient1011)"/><path id="path55" d="M1023.2.6L0 0l.086 388.955c176.41-108.65 406.334-78.837 580.184 19.105 118.51 53.141 269.45 53.287 362.159-40.125C1035.138 274.525 1023.235.6 1023.235.6z" fill="url(#linearGradient1013)" fill-rule="evenodd"/><path id="path55-5" d="M0 768h1024l-.468-338.923c-176.41 95.246-441.014 51.839-576 10.095-134.985-41.743-175.882-41.8-300.981 23.355C21.45 527.682 0 768 0 768z" fill="url(#linearGradient1015)" fill-rule="evenodd" stroke-width=".936"/></g></svg>