<svg xmlns="http://www.w3.org/2000/svg" xmlns:xlink="http://www.w3.org/1999/xlink" width="114.811" height="112.57" viewBox="0 0 107.635 105.534"><defs><pattern xlink:href="#a" id="b" patternTransform="matrix(.43638 0 0 .42754 -.668 -.382)"/><pattern xlink:href="#a" id="c" patternTransform="matrix(.39219 0 0 .43638 -.668 -.382)"/><pattern xlink:href="#a" id="d" patternTransform="matrix(.35683 0 0 .40103 -.668 -.382)"/><pattern xlink:href="#a" id="e" patternTransform="matrix(.44522 0 0 .39219 -.668 -.382)"/><pattern xlink:href="#a" id="f" patternTransform="matrix(.4629 0 0 .3745 -.668 -.382)"/><pattern id="a" patternTransform="scale(10)" height="10" width="10" patternUnits="userSpaceOnUse"><circle r=".45" cy=".81" cx="2.567"/><circle r=".45" cy="2.33" cx="3.048"/><circle r=".45" cy="2.415" cx="4.418"/><circle r=".45" cy="3.029" cx="1.844"/><circle r=".45" cy="1.363" cx="6.08"/><circle r=".45" cy="4.413" cx="5.819"/><circle r=".45" cy="4.048" cx="4.305"/><circle r=".45" cy="3.045" cx="5.541"/><circle r=".45" cy="5.527" cx="4.785"/><circle r=".45" cy="5.184" cx="2.667"/><circle r=".45" cy="1.448" cx="7.965"/><circle r=".45" cy="5.049" cx="7.047"/><circle r=".45" cy=".895" cx="4.34"/><circle r=".45" cy=".34" cx="7.125"/><circle r=".45" cy="1.049" cx="9.553"/><circle r=".45" cy="2.689" cx="7.006"/><circle r=".45" cy="2.689" cx="8.909"/><circle r=".45" cy="4.407" cx="9.315"/><circle r=".45" cy="3.87" cx="7.82"/><circle r=".45" cy="5.948" cx="8.27"/><circle r=".45" cy="7.428" cx="7.973"/><circle r=".45" cy="8.072" cx="9.342"/><circle r=".45" cy="9.315" cx="8.206"/><circle r=".45" cy="9.475" cx="9.682"/><circle r=".45" cy="6.186" cx="9.688"/><circle r=".45" cy="6.296" cx="3.379"/><circle r=".45" cy="8.204" cx="2.871"/><circle r=".45" cy="8.719" cx="4.59"/><circle r=".45" cy="9.671" cx="3.181"/><circle r=".45" cy="7.315" cx="5.734"/><circle r=".45" cy="6.513" cx="6.707"/><circle r=".45" cy="9.67" cx="5.73"/><circle r=".45" cy="8.373" cx="6.535"/><circle r=".45" cy="7.154" cx="4.37"/><circle r=".45" cy="7.25" cx=".622"/><circle r=".45" cy="5.679" cx=".831"/><circle r=".45" cy="8.519" cx="1.257"/><circle r=".45" cy="6.877" cx="1.989"/><circle r=".45" cy="3.181" cx=".374"/><circle r=".45" cy="1.664" cx="1.166"/><circle r=".45" cy=".093" cx="1.151"/><circle r=".45" cy="10.093" cx="1.151"/><circle r=".45" cy="4.451" cx="1.302"/><circle r=".45" cy="3.763" cx="3.047"/></pattern></defs><g fill-rule="evenodd"><path d="M6.479 59.885c-2.544 3.61-2.988 10.01 1.577 12.18l41.733 28.656 41.1-17.325c-5.55-1.837-3.471-7.21-.52-10.312-.478-2.292-3.455-2.55-5.184-3.72l-42.644-20.88-32.084 10.164c-.8 1.427-2.537 1.573-3.978 1.237z" fill="#a02c2c" stroke="#f60" stroke-width=".291"/><path d="M5.696 64.905c15.247 8.73 27.04 22.326 42.426 30.847l1.15 6.364L5.253 72.064c-.171-2.364-1.092-5.033.442-7.16z" opacity=".304" fill="url(#b)" stroke-width=".291" transform="translate(-.366 -1.926)"/><path d="M50.784 89.211c-1.051 2.724-1.481 10.515 3.31 7.5l33.99-13.775c-3.057-2.335 1.257-8.203.896-7.993L53.79 88.504c-.686.868-2.003 1.3-3.006.707z" fill="#f4eed7" stroke="#000" stroke-width=".291"/><path style="line-height:normal;text-indent:0;text-align:start;text-decoration-line:none;text-decoration-style:solid;text-decoration-color:#000;text-transform:none;isolation:auto;mix-blend-mode:normal" d="M90.738 73.56c-12.903 5.024-25.91 9.798-38.745 14.983-4.42 1.23-2.802 12.843 2.26 8.877l34.031-13.804c-.673-3.66-.266-7.514 2.44-9.982zm-2.135 1.91c-4.731 4.29-11.61 4.476-16.943 7.707 4.943-.551 10.277-5.948 14.806-3.876 1.393 4.084-3.778 4.395-6.355 5.773L51.66 96.899c-2.874-6.316 7.216-5.438 10.539-8.133 5.021-2.084 10.175-3.838 15.141-6.057-9.2 2.438-17.572 7.161-26.635 10 1.73-5.408 9.127-4.694 13.254-7.517 8.215-3.239 16.429-6.48 24.643-9.723zM71.239 87.13c-4.421 1.825-13.63 5.538-14.922 6.423 9.439-3.57 18.756-7.447 28.13-11.182-4.583 1.015-8.807 3.19-13.208 4.758z" color="#000" font-weight="400" font-family="sans-serif" white-space="normal" overflow="visible" fill="#decd87" stroke-width="1.772"/><path style="line-height:normal;text-indent:0;text-align:start;text-decoration-line:none;text-decoration-style:solid;text-decoration-color:#000;text-transform:none;isolation:auto;mix-blend-mode:normal" d="M42.784 47.5L9.327 57.797c-2.512 1.684-6.24 1.976-5.65 6.207-.943 3.78.795 7.606 4.348 9.166l41.017 28.565c4.42-.293 8.338-3.133 12.557-4.484l30.246-12.483c1.95-2.698-5.8-7.28-3.759-1.479-2.473 2.14-6.845 2.456-9.99 4.277-9.165 3.713-18.317 7.46-27.421 11.321-2.603-4.753-1.353-11.034 4.66-11.596 12.189-4.504 24.255-9.363 36.362-14.101.47-3.235-4.52-3.39-6.708-5.054L42.784 47.5zm-.164 2.082l45.61 22.76-35.647 13.613c-5.122.06-6.761 5.136-5.457 9.571-.304 2.46-3.263-1.279-4.664-1.758L7.492 69.705c-4.256-4.19-.207-9.987 4.715-10.406 10.161-3.144 20.273-6.49 30.413-9.717zm-32.1 12.573c7.047 5.524 15.226 9.365 22.74 14.194 5.376 3.213 10.78 6.4 16.426 9.124-3.35-3.895-9.098-5.567-13.347-8.594-8.59-4.909-16.836-10.591-25.82-14.724z" color="#000" font-weight="400" font-family="sans-serif" white-space="normal" overflow="visible" fill="#501616" stroke-width="1.772"/><g><path d="M8.07 42.561c5.867-1.77 12.111-.563 18.144-.997 6.717.048 13.543-.301 20.191-.006L84.968 65.1c-4.409 1.565-1.512 7.52-3.165 9.675-6.385 1.112-12.644 3.034-18.979 4.47l-27.972 6.892L5.86 52.019c.406-3.177-.716-7.167 2.21-9.458z" fill="#0a0" stroke="red" stroke-width=".291"/><path d="M7.433 46.606c10.064 9.905 17.518 21.999 26.308 32.967-2.046 2.486 3.296 7.413 1.608 7.987-3.715-2.35-5.85-6.412-8.837-9.56L6.58 54.121l.853-7.515z" opacity=".294" fill="url(#c)" stroke-width=".291" transform="translate(-.366 -1.926)"/><path d="M36.289 74.893c3.592-.284 7.008-1.702 10.656-1.982l35.57-5.62c-1.077 3.352-.55 7.782-5.368 7.34l-39.886 9.1c-3.05-1.744-3.477-6.45-.972-8.838z" fill="#f4eed7" stroke="#000" stroke-width=".291"/><path style="line-height:normal;text-indent:0;text-align:start;text-decoration-line:none;text-decoration-style:solid;text-decoration-color:#000;text-transform:none;isolation:auto;mix-blend-mode:normal" d="M84.587 66.295c-15.638 2.303-31.314 4.507-46.859 7.32-5.987 1.915-3.773 13.092 2.898 9.928 14.148-3.246 28.47-5.782 42.483-9.627-1.015-2.565-.272-5.562 1.478-7.62zM81.33 68.2c-.433 6.29-9.525 3.137-12.374 5.727 3.323.31 9.97-2.707 11.272-1.213-14.22 3.453-28.49 6.722-42.73 10.103-2.112-3.93 6.287-2.029 8.565-3.554C49.825 78.67 57.955 77.268 59 76.39c-7.664 1.676-15.495 2.424-23.16 4.09-2.19-4.855 4.069-6.005 7.475-6.29L81.33 68.2zm-5.543 2.513c-11.97 1.85-23.92 3.864-35.902 5.603-4.31 1.2 4.268-.126 5.277-.288 10.256-1.471 20.52-2.995 30.625-5.315z" color="#000" font-weight="400" font-family="sans-serif" white-space="normal" overflow="visible" fill="#decd87" stroke-width="1.772"/><path style="line-height:normal;text-indent:0;text-align:start;text-decoration-line:none;text-decoration-style:solid;text-decoration-color:#000;text-transform:none;isolation:auto;mix-blend-mode:normal" d="M46.452 40.48c-12.185.159-24.377.157-36.558.416-5.804 1.686-6.048 10.44-2.28 14.298 8.813 10.289 17.458 20.733 26.346 30.965 5.396 2.437 10.773-1.828 16.212-2.152 12.117-2.838 24.256-5.598 36.276-8.83 1.281-2.2-5.154-5.899-3.696-1.974-3.459 2.855-8.73 2.06-12.88 3.705-10.979 2.463-21.968 4.875-32.945 7.344-5.377-2.692-2.51-11.784 3.426-11.054l45.496-7.1c.181-3.06-4.302-3.604-6.343-5.44L46.452 40.48zm-.418 2.083l36.239 22.144c-14.895 2.328-29.817 4.51-44.695 6.93-6.129.717-5.097 10.725-4.088 11.68-8.5-10.266-17.049-20.494-25.569-30.744a75511799812667860 75511799812667860 0 0 0 38.113-10.01zm-35.206 2.354c6.117 7.663 13.846 13.855 20.047 21.46 1.356 1.722 7.817 7.815 4.05 2.877-6.917-7.99-14.234-15.692-22.05-22.82-.68-.502-1.213-1.26-2.047-1.517z" color="#000" font-weight="400" font-family="sans-serif" white-space="normal" overflow="visible" fill="#050" stroke-width="1.772"/></g><g><path d="M45.016 27.358L7.01 32.75C4.43 37.026 4.346 43.767 9.16 46.47L46.696 75l44.901-13.347c-6.317-1.686-1.785-7.957-.927-11.828-1.203-1.65-3.686-1.965-5.428-3.088L45.016 27.358z" fill="#0055d4" stroke="#f60" stroke-width=".291"/><path d="M5.696 39.714C17.529 50.738 31.148 59.55 44.233 68.97c-1.308 1.73 3.95 9.12.378 6.152L7.02 46.343c-1.332-1.93-1.346-4.379-1.325-6.63z" opacity=".296" fill="url(#d)" stroke-width=".291" transform="translate(-.366 -1.926)"/><path d="M47.426 62.96c-1.566 2.29-1.72 8.009.903 8.625l40.285-10.57c-1.596-2.973 3.136-9.725-2.7-6.716-12.85 2.749-25.656 5.797-38.488 8.661z" fill="#f4eed7" stroke="#000" stroke-width=".291"/><path style="line-height:normal;text-indent:0;text-align:start;text-decoration-line:none;text-decoration-style:solid;text-decoration-color:#000;text-transform:none;isolation:auto;mix-blend-mode:normal" d="M91.562 52.1c-14.711 3.279-29.426 6.537-44.139 9.809-2.608 2.664-2.83 10.548 1.766 10.613l40.008-10.93c-.115-3.293.154-6.853 2.365-9.492zm-3.283 2.227c-.284 4.29-10.544 2.77-8.82 4.51 1.814-.718 8.999-2.77 7.076.038-9.14 2.38-18.403 4.278-27.49 6.864 5.855-.232 11.368-2.753 17.121-3.754 3.427-.447 8.899-2.772 11.061-2.091-2.322 1.397-5.29 1.55-7.893 2.464l-30.696 8.344c-2.952-2.422-1.514-8.21 2.725-7.663l36.916-8.712zm-22.282 6.792c-6.029 1.594-12.144 2.91-18.031 4.997 9.227-2.001 18.419-4.505 27.406-7.253-3.18.405-6.248 1.56-9.375 2.256z" color="#000" font-weight="400" font-family="sans-serif" white-space="normal" overflow="visible" fill="#decd87" stroke-width="1.772"/><path style="line-height:normal;text-indent:0;text-align:start;text-decoration-line:none;text-decoration-style:solid;text-decoration-color:#000;text-transform:none;isolation:auto;mix-blend-mode:normal" d="M45.05 26.754L7.335 31.762C2.473 35.84 3.865 44.558 9.258 47.54l37.7 28.672 46.559-13.525c.774-2.559-5.633-5.988-4.637-1.303-3.387 1.662-8.07 2.138-11.968 3.467a3080.699 3080.699 0 0 0-29.811 8.205c-2.117-3.291-3.337-10.197 1.729-11.317l44.867-10.103c.528-3.351-4.548-3.468-6.797-5.108L45.05 26.754zm-.127 1.614L89.38 50.094l-44.49 9.899c-4.228 1.909.364 11.004-2.137 10.63L8.08 43.88c-2.358-3.056-2.45-9.924 2.306-10.569l34.538-4.944zm-34.78 6.542c6.457 6.38 14.43 10.949 21.57 16.51 3.24 2.357 10.034 7.192 11.389 7.42-9.47-8.414-19.745-15.937-30.453-22.687-.816-.45-1.65-.87-2.505-1.243z" color="#000" font-weight="400" font-family="sans-serif" white-space="normal" overflow="visible" fill="#025" stroke-width="1.772"/></g><g><path d="M50.938 16.221l-36.68 10.43c-3.234 1.275-7.383 3.618-4.535 7.75 3.533 2.644 7.845 4.11 11.74 6.212L62.43 60.681l39.068-14.142c-3.76-1.749 3.492-7.553-1.374-9.238L50.938 16.22z" fill="#fc0" stroke="#f60" stroke-width=".291"/><path d="M10.292 33.173C27.044 42.347 44.468 50.24 62.15 57.437l1.175 5.435-53.033-25.633v-4.066z" opacity=".304" fill="url(#e)" stroke-width=".291" transform="translate(-.366 -1.926)"/><path style="line-height:normal;text-indent:0;text-align:start;text-decoration-line:none;text-decoration-style:solid;text-decoration-color:#000;text-transform:none;isolation:auto;mix-blend-mode:normal" d="M50.968 15.577c-12.47 3.465-24.982 6.778-37.496 10.08-7.003 1.44-6.234 11.333.554 12.564 12.275 5.763 24.25 12.23 36.455 18.18 4.33 1.667 8.668 5.19 13.053 5.542 8.954-2.534 17.477-6.41 26.236-9.556a883.206 883.206 0 0 0 13.09-5.111c-2.211-5.25-6.842 1.998-10.931 1.7-9.07 3.127-18.053 6.504-27.07 9.778-5.657-4.73 3.698-7.832 7.486-8.594 10.424-3.747 20.902-7.34 31.342-11.042-1.384-4.077-8.677-4.212-12.37-6.71L50.968 15.576zm-.06 1.597l49.11 21.418c-12.577 4.459-25.324 8.48-37.792 13.223-3.244 1.076 1.043 9.054-2.884 6.586L11.099 34.502c-2.979-5.785 5.332-7.623 9.404-8.71l30.404-8.618zM14.596 28.573c6.748 4.673 14.605 7.438 21.827 11.292 7.732 3.694 15.611 7.896 23.429 10.9-4.721-3.286-10.318-5.344-15.423-8.074-9.877-4.836-19.673-9.908-29.833-14.118z" color="#000" font-weight="400" font-family="sans-serif" white-space="normal" overflow="visible" fill="#a80" stroke-width="2.48"/><path d="M101.784 40.156L63.84 53.757c-1.494 4.828 3.18 4.333 5.938 2.72L99.36 45.86c1.273-1.629 2.618-3.521 2.423-5.703z" fill="#f4eed7" stroke="#000" stroke-width=".291"/><path style="line-height:normal;text-indent:0;text-align:start;text-decoration-line:none;text-decoration-style:solid;text-decoration-color:#000;text-transform:none;isolation:auto;mix-blend-mode:normal" d="M102.427 39.586c-12.982 4.261-25.767 9.088-38.65 13.633-2.552 4.71 3.104 6.16 6.235 3.715L99.44 46.387c1.779-1.755 3.527-4.149 2.986-6.8zm-1.285 1.272c-.35 4.515-4.92 5.651-8.464 6.86l-27.243 9.769c-3.845-3.683 2.835-4.799 5.56-5.847l30.147-10.782zm-17.528 7.05c-5.684 2.225-11.7 3.624-17.14 6.452 9.45-2.428 18.303-6.68 27.55-9.747 2.415-.85 8.157-3.365 2.498-1.4-4.351 1.429-8.587 3.179-12.908 4.696zm14.895-3.402c-10.956 3.6-21.813 7.587-32.516 11.84 9.852-3.18 19.654-6.704 29.315-10.474a133.94 133.94 0 0 0 3.201-1.366z" color="#000" font-weight="400" font-family="sans-serif" white-space="normal" overflow="visible" fill="#decd87"/></g><g><path d="M53.944 4.112L12.93 12.244c-3.879 3.152-4.602 10.7.452 13.029L52.44 51.31l48.348-12.197c-4.503-1.544-6.308-7.25-2.45-10.527 3.158-2.389-.219-3.39-2.311-4.32L53.944 4.112z" fill="#d40000" stroke="#f60" stroke-width=".291"/><path d="M11 21.594c13.16 8.54 26.97 16.015 40.835 23.335l1.679 8.132c-5.053-1.439-8.876-5.32-13.314-7.976L10.822 25.218 11 21.594z" opacity=".283" fill="url(#f)" stroke-width=".291" transform="translate(-.366 -1.926)"/><path d="M55.115 39.714L97.63 29.107c-2.436 2.75 1.102 9.26-4.41 9.179L54.054 48.73c-1.38-3.117-.125-6.096 1.05-8.99l.01-.026z" fill="#f4eed7" stroke="#000" stroke-width=".291"/><path style="line-height:normal;text-indent:0;text-align:start;text-decoration-line:none;text-decoration-style:solid;text-decoration-color:#000;text-transform:none;isolation:auto;mix-blend-mode:normal" d="M99.935 27.891c-14.987 3.68-29.987 7.303-44.979 10.96-2.285 2.42-3.97 9.912.363 10.38l42.383-11.133c-1.301-3.47-.356-7.579 2.233-10.207zm-3.881 2.187c-3.004 4.72-9.751 2.633-14.281 4.825-7.313 1.646-14.66 3.205-21.815 5.468 11.581-2.077 23.111-5.134 34.496-7.669 3.322 3.348-1.011 5.474-4.074 5.56l-35.873 8.97c2.884-2.88 9.579-1.875 11.556-4.11-3.754-.17-9.915 4.538-12.116 1.089.039-4.667 5.19-4.245 8.464-5.388l33.643-8.745zm-24.48 9.696c-4.32 1.04-13.198 2.544-14.586 3.556 10.209-1.493 20.27-3.964 30.233-6.582-2.811-.164-9.693 1.889-13.96 2.655l-.843.186z" color="#000" font-weight="400" font-family="sans-serif" white-space="normal" overflow="visible" fill="#decd87"/><path style="line-height:normal;text-indent:0;text-align:start;text-decoration-line:none;text-decoration-style:solid;text-decoration-color:#000;text-transform:none;isolation:auto;mix-blend-mode:normal" d="M54.118 3.543l-42.175 8.205c-3.956 4.08-4.056 12.11 1.822 14.505 12.884 8.734 25.779 17.452 38.67 26.175l48.922-12.873c-.293-3.087-4.18-3.591-5.23-.914-3.988.704-7.825 1.756-11.72 2.877a2618.876 2618.876 0 0 1-30.98 7.906c-1.477-3.599-1.647-9.862 3.091-10.93l44.329-10.501c.599-3.475-4.494-3.609-6.774-5.277L54.118 3.543zM54 5.014l44.002 21.39-44.33 11.089c-4.337 2.275-2.066 10.65-2.855 11.759L12.202 23.5c-1.84-3.346-2.049-9.897 2.797-10.583l39-7.903zm-40.463 8.604c11.26 7.89 23.478 14.274 35.134 21.537 1.773 1.254 5.73 2.165 2.013.185C39.057 27.924 27.058 21.1 15.097 14.248l-.77-.34z" color="#000" font-weight="400" font-family="sans-serif" white-space="normal" overflow="visible" fill="#a00" stroke-width="2.126"/></g></g></svg>