<svg xmlns="http://www.w3.org/2000/svg" width="539.886" height="450.619"><path d="M272.03 7.513c79.853-.758 155.349 62.11 168.147 141.103 13.479 70.72-22.23 148.75-86.48 182.277-54.145 29.998-125.032 28.217-176.608-6.527-37.794 39.041-76.739 76.953-114.922 115.613l-51.595-51.595c38.188-38.697 77.648-76.795 115.06-115.85-43.057-65.793-33.115-161.745 24.806-215.626C182.528 25.58 227.06 6.946 272.03 7.513zm-2.828 56.035c-55.432-.178-107.895 45.763-113.709 101.558-6.68 51.191 24.496 106.143 73.944 123.465 40.975 15.649 90.842 6.576 122.022-24.822 35.47-33.746 46.44-91.133 23.689-134.928-19.256-39.603-61.664-66.51-105.946-65.273z" stroke="#fff" stroke-width="15"/><text style="line-height:111.87123871px" x="231.449" y="187.348" transform="scale(.6762 1.47885)" font-weight="400" font-size="178.994" font-family="Sans" letter-spacing="0" word-spacing="0" stroke-width="4.475"><tspan x="231.449" y="187.348">&lt;#FM&gt;</tspan></text></svg>