<svg xmlns="http://www.w3.org/2000/svg" width="489.493" height="450.619"><path d="M489.493 81.592l-.163 6.623c-15.255.434-24.43 8.578-30.294 21.88-13.572 31.379-56.082 130.296-84.313 194.685h-7.383l-44.464-104.835c-17.645 34.529-37.08 70.577-53.856 104.835-.163.163-8.144 0-8.144-.163-25.462-59.557-52.173-118.68-77.69-178.399-6.189-14.495-26.819-38.003-41.043-37.84 0-1.683-.163-5.43-.163-7.71h87.896v7.547c-10.423.597-28.665 7.22-23.507 18.567 11.89 26.983 56.244 130.46 68.188 156.683 8.144-16.125 31.38-59.285 40.881-77.527-7.546-15.364-31.814-72.695-39.523-86.865-5.267-9.664-19.6-10.532-30.294-10.695v-7.546l77.363.162v7.112c-10.532.326-20.684 4.235-15.961 14.17 10.26 21.716 16.613 36.972 26.114 56.842 3.04-5.863 18.839-37.677 26.113-54.724 4.832-11.184-2.117-15.527-20.956-15.962.163-1.954 0-5.592.163-7.383 24.105-.163 60.317-.163 66.832-.326v7.383c-12.216.435-24.865 6.95-31.543 17.21l-32.14 66.67c3.475 8.74 34.366 77.526 37.57 85.072l66.45-153.424c-4.668-12.542-19.761-15.256-25.625-15.365v-7.546l69.384.597z"/><path d="M272.033 7.513C351.87 6.756 427.358 69.6 440.167 148.579c13.466 70.565-22.029 148.42-86.031 182.072-54.203 30.243-125.331 28.554-177.047-6.285-37.791 39.044-76.739 76.952-114.922 115.614l-51.595-51.596c38.188-38.697 77.65-76.794 115.062-115.85-43.06-65.793-33.117-161.748 24.808-215.628 32.09-31.327 76.62-49.962 121.59-49.393zm-3.905 56.027c-58.208.272-112.02 51.499-113.283 110.111-2.966 51.1 31.071 102.67 80.752 117.043 42.81 13.93 94.448.617 123.348-34.91 29.455-33.98 37.073-85.75 16.511-126.295-18.674-39.123-60.23-66.367-103.879-65.918-1.15-.02-2.299-.03-3.449-.03z" stroke="#fff" stroke-width="15"/></svg>