<svg xmlns="http://www.w3.org/2000/svg" width="450.524" height="466.473"><path d="M99.745 334.493h193.262v14.866H99.745zM99.745 133.797h193.262v133.798H99.745zM99.745 98.698l8.02 10.429 22.916-29.733 22.894 29.733 22.91-29.733 22.916 29.733 22.917-29.733 22.894 29.733 22.916-29.733 22.924 29.733 1.955-2.535v-32.26H99.745z"/><path d="M99.745 126.364h193.262v-7.596l-1.955 2.534-22.924-29.733-22.916 29.733-22.894-29.733-22.917 29.733-22.916-29.733-22.91 29.733-22.894-29.733-22.916 29.733-8.02-10.414zM99.745 327.06h193.262v-7.596l-1.955 2.534-22.924-29.733-22.916 29.733-22.894-29.733-22.917 29.733-22.916-29.733-22.91 29.733-22.894-29.733-22.916 29.733-8.02-10.414z"/><path d="M99.745 299.394l8.02 10.428 22.916-29.733 22.894 29.733 22.91-29.733 22.916 29.733 22.917-29.733 22.894 29.733 22.916-29.733 22.924 29.733 1.955-2.535v-32.26H99.745zM99.745 52.033h193.262v14.866H99.745zM99.745 0h14.866v44.6H99.745zM122.044 0h14.866v44.6h-14.866zM144.344 0h14.866v44.6h-14.866zM166.644 0h14.866v44.6h-14.866zM188.943 0h14.866v44.6h-14.866zM211.242 0h14.866v44.6h-14.866zM233.542 0h14.866v44.6h-14.866zM255.842 0h14.866v44.6h-14.866zM278.141 0h14.866v44.6h-14.866zM99.745 356.793h14.866v44.599H99.745zM122.044 356.793h14.866v44.599h-14.866zM144.344 356.793h14.866v44.599h-14.866zM166.644 356.793h14.866v44.599h-14.866zM188.943 356.793h14.866v44.599h-14.866zM211.242 356.793h14.866v44.599h-14.866zM233.542 356.793h14.866v44.599h-14.866zM255.842 356.793h14.866v44.599h-14.866zM278.141 356.793h14.866v44.599h-14.866z"/><path d="M272.033 23.366c79.837-.757 155.325 62.089 168.134 141.067 13.466 70.565-22.029 148.42-86.031 182.071-54.203 30.244-125.331 28.555-177.047-6.284-37.791 39.043-76.739 76.952-114.922 115.613l-51.595-51.595c38.188-38.698 77.65-76.794 115.062-115.85-43.06-65.794-33.117-161.748 24.808-215.628 32.09-31.327 76.62-49.962 121.59-49.394zm-3.905 56.028c-58.208.272-112.02 51.498-113.283 110.111-2.966 51.1 31.071 102.67 80.752 117.042 42.81 13.93 94.448.618 123.348-34.91 29.455-33.98 37.073-85.748 16.511-126.294-18.674-39.124-60.23-66.368-103.879-65.918-1.15-.02-2.299-.03-3.449-.031z" stroke="#f9ffff" stroke-width="15"/></svg>