<?xml version="1.0" encoding="UTF-8" standalone="no"?>
<!-- Generator: Adobe Illustrator 16.2.1, SVG Export Plug-In . SVG Version: 6.00 Build 0)  -->

<svg
   xmlns:dc="http://purl.org/dc/elements/1.1/"
   xmlns:cc="http://creativecommons.org/ns#"
   xmlns:rdf="http://www.w3.org/1999/02/22-rdf-syntax-ns#"
   xmlns:svg="http://www.w3.org/2000/svg"
   xmlns="http://www.w3.org/2000/svg"
   xmlns:sodipodi="http://sodipodi.sourceforge.net/DTD/sodipodi-0.dtd"
   xmlns:inkscape="http://www.inkscape.org/namespaces/inkscape"
   version="1.1"
   id="Layer_1"
   x="0px"
   y="0px"
   width="450.52396"
   height="466.47296"
   viewBox="0 0 450.52396 466.47297"
   xml:space="preserve"
   sodipodi:docname="cheat-tx.svg"
   inkscape:version="0.92.2 5c3e80d, 2017-08-06"><metadata
     id="metadata9"><rdf:RDF><cc:Work
         rdf:about=""><dc:format>image/svg+xml</dc:format><dc:type
           rdf:resource="http://purl.org/dc/dcmitype/StillImage" /><dc:title></dc:title></cc:Work></rdf:RDF></metadata><defs
     id="defs7" /><sodipodi:namedview
     pagecolor="#ffffff"
     bordercolor="#666666"
     borderopacity="1"
     objecttolerance="10"
     gridtolerance="10"
     guidetolerance="10"
     inkscape:pageopacity="0"
     inkscape:pageshadow="2"
     inkscape:window-width="1418"
     inkscape:window-height="1208"
     id="namedview5"
     showgrid="false"
     fit-margin-top="0"
     fit-margin-left="0"
     fit-margin-right="0"
     fit-margin-bottom="0"
     inkscape:zoom="0.921875"
     inkscape:cx="34.798411"
     inkscape:cy="228.34264"
     inkscape:window-x="2440"
     inkscape:window-y="147"
     inkscape:window-maximized="0"
     inkscape:current-layer="Layer_1" /><g
     id="g951"
     transform="matrix(0.77732646,0,0,0.77732646,-4.3200027,0)"><g
       id="g870"><g
         id="Layer_2_32_"><rect
           id="rect819"
           height="19.125"
           width="248.625"
           y="430.31201"
           x="133.875" /><rect
           id="rect821"
           height="172.125"
           width="248.625"
           y="172.125"
           x="133.875" /><polygon
           id="polygon823"
           points="133.875,126.971 144.193,140.387 173.674,102.137 203.126,140.387 232.598,102.137 262.079,140.387 291.561,102.137 321.013,140.387 350.494,102.137 379.985,140.387 382.5,137.126 382.5,95.625 133.875,95.625 " /><polygon
           id="polygon825"
           points="133.875,162.562 382.5,162.562 382.5,152.79 379.985,156.05 350.494,117.8 321.013,156.05 291.561,117.8 262.079,156.05 232.598,117.8 203.126,156.05 173.674,117.8 144.193,156.05 133.875,142.653 " /><polygon
           id="polygon827"
           points="133.875,420.75 382.5,420.75 382.5,410.978 379.985,414.238 350.494,375.988 321.013,414.238 291.561,375.988 262.079,414.238 232.598,375.988 203.126,414.238 173.674,375.988 144.193,414.238 133.875,400.841 " /><polygon
           id="polygon829"
           points="133.875,385.158 144.193,398.574 173.674,360.324 203.126,398.574 232.598,360.324 262.079,398.574 291.561,360.324 321.013,398.574 350.494,360.324 379.985,398.574 382.5,395.313 382.5,353.812 133.875,353.812 " /><rect
           id="rect831"
           height="19.125"
           width="248.625"
           y="66.938004"
           x="133.875" /><rect
           id="rect833"
           height="57.375"
           width="19.125"
           x="133.875"
           y="0" /><rect
           id="rect835"
           height="57.375"
           width="19.125"
           x="162.562"
           y="0" /><rect
           id="rect837"
           height="57.375"
           width="19.125"
           x="191.25"
           y="0" /><rect
           id="rect839"
           height="57.375"
           width="19.125"
           x="219.938"
           y="0" /><rect
           id="rect841"
           height="57.375"
           width="19.125"
           x="248.625"
           y="0" /><rect
           id="rect843"
           height="57.375"
           width="19.125"
           x="277.31201"
           y="0" /><rect
           id="rect845"
           height="57.375"
           width="19.125"
           x="306"
           y="0" /><rect
           id="rect847"
           height="57.375"
           width="19.125"
           x="334.68799"
           y="0" /><rect
           id="rect849"
           height="57.375"
           width="19.125"
           x="363.375"
           y="0" /><rect
           id="rect851"
           height="57.375"
           width="19.125"
           y="459"
           x="133.875" /><rect
           id="rect853"
           height="57.375"
           width="19.125"
           y="459"
           x="162.562" /><rect
           id="rect855"
           height="57.375"
           width="19.125"
           y="459"
           x="191.25" /><rect
           id="rect857"
           height="57.375"
           width="19.125"
           y="459"
           x="219.938" /><rect
           id="rect859"
           height="57.375"
           width="19.125"
           y="459"
           x="248.625" /><rect
           id="rect861"
           height="57.375"
           width="19.125"
           y="459"
           x="277.31201" /><rect
           id="rect863"
           height="57.375"
           width="19.125"
           y="459"
           x="306" /><rect
           id="rect865"
           height="57.375"
           width="19.125"
           y="459"
           x="334.68799" /><rect
           id="rect867"
           height="57.375"
           width="19.125"
           y="459"
           x="363.375" /></g></g><g
       id="g872" /><g
       id="g874" /><g
       id="g876" /><g
       id="g878" /><g
       id="g880" /><g
       id="g882" /><g
       id="g884" /><g
       id="g886" /><g
       id="g888" /><g
       id="g890" /><g
       id="g892" /><g
       id="g894" /><g
       id="g896" /><g
       id="g898" /><g
       id="g900" /></g><path
     style="fill:#000000;fill-opacity:1;stroke:#f9ffff;stroke-width:15;stroke-miterlimit:4;stroke-dasharray:none;stroke-opacity:1"
     d="M 272.03255,23.366449 C 351.87017,22.609381 427.35811,85.454607 440.16731,164.43286 453.6325,234.99805 418.138,312.85288 354.13585,346.50449 299.93296,376.74777 228.80496,375.05885 177.0892,340.21996 139.29767,379.26332 100.35011,417.17218 62.167319,455.83325 44.968749,438.63468 27.770189,421.43612 10.571619,404.23754 48.759969,365.54034 88.221699,327.44353 125.63412,288.38794 82.573709,222.59445 92.516989,126.64007 150.44169,72.759911 182.53239,41.432566 227.06172,22.797553 272.03255,23.366449 Z m -3.9043,56.027344 c -58.20806,0.272173 -112.02038,51.498627 -113.28319,110.111337 -2.96617,51.0996 31.0711,102.67013 80.75152,117.04216 42.80952,13.93028 94.44823,0.61777 123.34807,-34.90935 C 388.4,237.65746 396.0178,185.88851 375.45637,145.34301 356.78243,106.21936 315.2257,78.975411 271.57747,79.425043 c -1.14969,-0.02032 -2.29937,-0.02945 -3.44922,-0.03125 z"
     id="path2"
     inkscape:connector-curvature="0" /></svg>