<?xml version="1.0" encoding="UTF-8" standalone="no"?>
<!-- Created with Inkscape (http://www.inkscape.org/) -->

<svg
   xmlns:dc="http://purl.org/dc/elements/1.1/"
   xmlns:cc="http://creativecommons.org/ns#"
   xmlns:rdf="http://www.w3.org/1999/02/22-rdf-syntax-ns#"
   xmlns:svg="http://www.w3.org/2000/svg"
   xmlns="http://www.w3.org/2000/svg"
   xmlns:sodipodi="http://sodipodi.sourceforge.net/DTD/sodipodi-0.dtd"
   xmlns:inkscape="http://www.inkscape.org/namespaces/inkscape"
   width="41.139854mm"
   height="39.101494mm"
   viewBox="0 0 41.139854 39.101494"
   version="1.1"
   id="svg4590"
   inkscape:version="0.92.2 5c3e80d, 2017-08-06"
   sodipodi:docname="feather.svg">
  <defs
     id="defs4584" />
  <sodipodi:namedview
     id="base"
     pagecolor="#ffffff"
     bordercolor="#666666"
     borderopacity="1.0"
     inkscape:pageopacity="0.0"
     inkscape:pageshadow="2"
     inkscape:zoom="0.35"
     inkscape:cx="66.316017"
     inkscape:cy="-134.67884"
     inkscape:document-units="mm"
     inkscape:current-layer="layer1"
     showgrid="false"
     fit-margin-top="0"
     fit-margin-left="0"
     fit-margin-right="0"
     fit-margin-bottom="0"
     inkscape:window-width="1680"
     inkscape:window-height="1013"
     inkscape:window-x="3360"
     inkscape:window-y="0"
     inkscape:window-maximized="1" />
  <metadata
     id="metadata4587">
    <rdf:RDF>
      <cc:Work
         rdf:about="">
        <dc:format>image/svg+xml</dc:format>
        <dc:type
           rdf:resource="http://purl.org/dc/dcmitype/StillImage" />
        <dc:title />
      </cc:Work>
    </rdf:RDF>
  </metadata>
  <g
     inkscape:label="Layer 1"
     inkscape:groupmode="layer"
     id="layer1"
     transform="translate(-91.31103,-77.12187)">
    <g
       transform="matrix(0.26458333,0,0,0.26458333,-182.32105,-42.293799)"
       id="g7124">
      <path
         style="fill:#ffd5d5;fill-rule:evenodd"
         d="m 1053.9,578.22 c -3.4793,-7.8391 0.58,-16.69247 3.3685,-24.15171 8.0541,-18.41151 23.4755,-32.03827 37.2852,-46.0936 16.1368,-15.5708 33.3837,-30.45872 53.7759,-40.1925 12.4351,-6.15765 24.9358,-12.57415 38.3627,-16.27389 7.1351,1.99068 -1.2212,13.21663 -3.1417,18.2065 -12.2996,22.82025 -29.8713,42.35698 -49.7339,58.85996 -15.2992,12.50457 -29.9817,25.88037 -46.4245,36.89854 -9.3308,5.74448 -18.8596,12.29548 -29.8999,13.97625 -1.2786,0.0348 -2.743,-0.12835 -3.5923,-1.22955 z"
         id="path7095"
         inkscape:connector-curvature="0" />
      <path
         style="fill:#ff8080;fill-rule:evenodd"
         d="m 1188.3,451.34 c -12.1823,2.47116 -23.3161,8.55934 -34.539,13.72509 -16.4634,7.78156 -31.8479,17.7665 -45.2655,30.11107 -15.6437,14.17283 -31.2255,28.75335 -43.8581,45.74377 -6.5968,10.22447 -12.8425,22.08351 -11.8031,34.58791 3.4242,8.48002 14.1891,0.85297 20.0681,-1.47905 22.3317,-11.45785 40.6263,-28.94324 59.9706,-44.61375 11.9644,-10.28021 23.7159,-21.00121 33.365,-33.54324 -5.5103,-0.34373 -11.0207,-0.68747 -16.531,-1.0312 6.6563,-1.16667 13.3127,-2.33333 19.969,-3.5 3.9833,-3.77351 -3.4002,-1.46888 -5.6935,-1.88386 -2.821,0.11753 -5.6419,0.23507 -8.4628,0.35261 6.0103,-1.29167 12.0207,-2.58333 18.031,-3.875 3.8925,-3.99232 -3.4037,-1.28145 -5.7254,-1.54832 -2.8415,0.28698 -5.6829,0.57395 -8.5244,0.86092 5.75,-1.2604 11.5,-2.5208 17.25,-3.7812 4.2296,-4.31616 -3.1312,-1.52191 -5.5932,-1.72939 -1.3434,0.0581 -8.0641,1.09063 -5.347,0.41302 4.6778,-1.18621 9.3556,-2.37242 14.0334,-3.55863 3.77,-4.28087 -3.4038,-1.23806 -5.782,-1.40089 -2.6183,0.37179 -7.0218,1.25771 -2.2241,-0.50636 4.0539,-1.80175 8.1077,-3.6035 12.1616,-5.40525 1.9094,-5.01194 8.3983,-13.31402 4.5004,-17.93825 z"
         id="path7097"
         inkscape:connector-curvature="0" />
      <g
         id="g7099"
         style="fill:#d40000"
         transform="translate(947.66,368.05)">
        <path
           style="fill:#d40000;fill-rule:evenodd"
           d="m 119.2,169.95 c 0.67707,5.72933 1.35413,11.45867 2.0312,17.188 0.52083,-7.21867 1.04167,-14.43733 1.5625,-21.656 -1.3208,1.39079 -2.49478,2.90034 -3.5937,4.468 z"
           id="path7101"
           inkscape:connector-curvature="0" />
        <path
           style="fill:#d40000;fill-rule:evenodd"
           d="m 114.3,177.26 c 0.6146,4.18733 1.2292,8.37467 1.8438,12.562 0.32292,-5.677 0.64583,-11.354 0.96875,-17.031 -0.99648,1.45169 -1.91301,2.95604 -2.81255,4.469 z"
           id="path7103"
           inkscape:connector-curvature="0" />
        <path
           style="fill:#d40000;fill-rule:evenodd"
           d="m 110.02,185.42 c 0.6146,2.89583 1.2292,5.79167 1.8438,8.6875 -0.0729,-4.01033 -0.14583,-8.02067 -0.21875,-12.031 -0.56042,1.10513 -1.11709,2.21396 -1.62505,3.3435 z"
           id="path7105"
           inkscape:connector-curvature="0" />
        <path
           style="fill:#d40000;fill-rule:evenodd"
           d="m 118.52,209.07 c -8.97743,1.30095 -10.00174,-8.86735 -10.22679,-15.32444 -0.1699,-7.61368 -3.06752,6.06932 -3.20226,8.82667 -2.06134,10.36103 6.55718,9.91616 13.42905,6.49777 z"
           id="path7107"
           inkscape:connector-curvature="0" />
      </g>
      <path
         style="fill:#550000;fill-rule:evenodd"
         d="m 1034.2,599.12 c 5.6324,-5.96949 13.6023,-6.45104 17.5511,-14.37709 13.3438,-15.80767 28.0621,-30.39625 43.8985,-43.69809 25.947,-23.89398 51.2368,-48.51105 76.0304,-73.59492 -31.4482,28.21663 -62.4292,56.971 -94.3533,84.6531 -15.4233,14.66025 -29.5181,30.67897 -43.1267,47.017 z"
         id="path7109"
         inkscape:connector-curvature="0" />
      <path
         style="fill:#aa0000;fill-rule:evenodd"
         d="m 1039.1,594.68 c 6.3755,-3.19241 10.3809,-8.9962 15.0738,-14.27491 13.0514,-15.05584 27.7139,-28.56789 42.8825,-41.44561 23.7239,-21.60289 47.3904,-43.33398 69.6958,-66.40923 2.6349,-4.01905 -5.4779,3.69396 -7.0628,5.01952 -27.6787,25.1981 -54.539,51.30076 -82.8229,75.82684 -13.5217,12.86347 -25.9454,26.85521 -37.7664,41.28339 z"
         id="path7111"
         inkscape:connector-curvature="0" />
    </g>
  </g>
</svg>
