<svg xmlns="http://www.w3.org/2000/svg" width="155.489" height="147.785" viewBox="0 0 41.14 39.101"><g fill-rule="evenodd"><path d="M5.212 33.572c-.92-2.074.154-4.417.892-6.39 2.13-4.872 6.21-8.477 9.865-12.196 4.27-4.12 8.832-8.059 14.228-10.634 3.29-1.63 6.597-3.327 10.15-4.306 1.888.527-.323 3.497-.831 4.817-3.255 6.038-7.904 11.207-13.16 15.573-4.047 3.309-7.932 6.848-12.282 9.763-2.469 1.52-4.99 3.253-7.911 3.698-.339.01-.726-.034-.95-.325z" fill="#ffd5d5"/><path d="M40.772.001c-3.223.654-6.169 2.265-9.138 3.632-4.356 2.059-8.427 4.7-11.977 7.967-4.139 3.75-8.261 7.607-11.604 12.103-1.745 2.705-3.398 5.843-3.123 9.151.906 2.244 3.755.226 5.31-.391 5.909-3.032 10.75-7.658 15.867-11.804 3.166-2.72 6.275-5.557 8.828-8.875l-4.374-.273 5.284-.926c1.054-.999-.9-.389-1.507-.499l-2.239.094 4.77-1.026c1.03-1.056-.9-.339-1.514-.41l-2.255.229 4.564-1c1.119-1.143-.829-.404-1.48-.458-.356.015-2.134.288-1.415.109l3.713-.942c.998-1.132-.9-.327-1.53-.37-.692.098-1.858.332-.588-.134l3.218-1.43c.505-1.327 2.222-3.523 1.19-4.747z" fill="#ff8080"/><g fill="#d40000"><path d="M8.641 22.93l.538 4.548.413-5.73c-.35.368-.66.767-.95 1.182zM7.345 24.864l.488 3.324.256-4.506c-.264.384-.506.782-.744 1.182zM6.212 27.023l.488 2.299-.058-3.183a21.07 21.07 0 0 0-.43.884zM8.461 33.28c-2.375.345-2.646-2.345-2.705-4.054-.045-2.014-.812 1.606-.848 2.335-.545 2.742 1.735 2.624 3.553 1.72z"/></g><path d="M0 39.101c1.49-1.579 3.599-1.706 4.644-3.803a95.91 95.91 0 0 1 11.615-11.562C23.124 17.414 29.815 10.9 36.375 4.264c-8.32 7.465-16.518 15.073-24.964 22.398C7.33 30.54 3.6 34.779 0 39.102z" fill="#500"/><path d="M1.296 37.927c1.687-.845 2.747-2.38 3.989-3.777 3.453-3.984 7.332-7.559 11.346-10.966 6.277-5.716 12.538-11.465 18.44-17.57.697-1.064-1.45.977-1.869 1.327-7.323 6.667-14.43 13.574-21.913 20.063-3.578 3.403-6.865 7.105-9.993 10.923z" fill="#a00"/></g></svg>