<svg xmlns="http://www.w3.org/2000/svg" height="512.078" width="512.046"><circle cx="253.831" cy="256.078" r="236.475" fill="#f5f5f5"/><path d="M296.157 354.157c39.585-2.957 83.628-21.6 95.914-62.829 11.255-35.3 11.398-78.815-15.642-107.232 5.497-17.96 11.113-64.694-17.13-58.325-24.645 2.762-42.166 30.28-67.366 17.275-30.617-5.94-62.46-3.726-92.376 4.772-17.297-9.11-47.891-33.474-63.292-16.99-13.01 25.032 8.509 52.806-14 72.53-15.646 33.79-11.25 75.804 7.202 107.614 18.393 29.155 53.978 39.779 86.417 43.185-13.818 14.964-12.434 41.396-40.084 36.215-30.51 3.464-37.91-30.704-59.505-42.974-16.81-12.008-35.82 3.652-11.24 12.995 20.026 15.677 20.093 48.399 47.252 56.604 13.23 12.11 44.853-5.254 48.61 7.804-.474 12.382 1.02 24.957-.886 37.198-22.221 16.958-51.685-12.392-72.866-22.81-78.35-53.63-114.379-159.81-84.876-250.084 27.59-93.635 122.126-161.522 219.73-157.3 99.324.836 191.525 76.21 212.215 173.33 21.766 89.54-18.543 189.531-96.489 238.712-18.325 7.594-54.288 40.952-66.622 13.704-.95-27.5 2.318-55.403-2.584-82.555-2.208-7.834-6.066-15.517-12.382-20.839zm215.867-97.944c1.382-100.697-63.263-197.847-156.307-236.092C263.363-20.234 148.445 1.5 77.263 72.875 5.023 141.599-19.822 254.226 16.67 346.994c35.107 95.275 131.34 163.701 232.973 164.905 100.66 3.967 199.287-58.452 239.754-150.524 14.942-32.907 22.67-69.027 22.628-105.162z" clip-rule="evenodd" fill-rule="evenodd"/></svg>