<?xml version="1.0" encoding="UTF-8" standalone="no"?>
<svg
   xmlns:dc="http://purl.org/dc/elements/1.1/"
   xmlns:cc="http://creativecommons.org/ns#"
   xmlns:rdf="http://www.w3.org/1999/02/22-rdf-syntax-ns#"
   xmlns:svg="http://www.w3.org/2000/svg"
   xmlns="http://www.w3.org/2000/svg"
   xmlns:sodipodi="http://sodipodi.sourceforge.net/DTD/sodipodi-0.dtd"
   xmlns:inkscape="http://www.inkscape.org/namespaces/inkscape"
   enable-background="new 0 0 512 512"
   height="512.07825"
   id="Layer_1"
   version="1.1"
   viewBox="0 0 512.04614 512.07825"
   width="512.04614"
   xml:space="preserve"
   sodipodi:docname="github.svg"
   inkscape:version="0.92.2 5c3e80d, 2017-08-06"><metadata
     id="metadata11"><rdf:RDF><cc:Work
         rdf:about=""><dc:format>image/svg+xml</dc:format><dc:type
           rdf:resource="http://purl.org/dc/dcmitype/StillImage" /><dc:title></dc:title><cc:license
           rdf:resource="" /></cc:Work></rdf:RDF></metadata><defs
     id="defs9" /><sodipodi:namedview
     pagecolor="#ffffff"
     bordercolor="#666666"
     borderopacity="1"
     objecttolerance="10"
     gridtolerance="10"
     guidetolerance="10"
     inkscape:pageopacity="0"
     inkscape:pageshadow="2"
     inkscape:window-width="1680"
     inkscape:window-height="1013"
     id="namedview7"
     showgrid="false"
     inkscape:zoom="0.4609375"
     inkscape:cx="117.9011"
     inkscape:cy="160.63743"
     inkscape:window-x="1680"
     inkscape:window-y="0"
     inkscape:window-maximized="1"
     inkscape:current-layer="Layer_1"
     fit-margin-top="0"
     fit-margin-left="0"
     fit-margin-right="0"
     fit-margin-bottom="0" /><circle
     style="opacity:1;fill:#f5f5f5;fill-opacity:1;fill-rule:nonzero;stroke:none;stroke-width:5;stroke-linecap:square;stroke-miterlimit:4;stroke-dasharray:5, 10;stroke-dashoffset:0;stroke-opacity:1"
     id="path4505"
     cx="253.83051"
     cy="256.07825"
     r="236.47458" /><path
     style="clip-rule:evenodd;fill:#000000;fill-opacity:1;fill-rule:evenodd"
     d="m 296.15742,354.15714 c 39.58458,-2.95687 83.62742,-21.60027 95.914,-62.82898 11.25477,-35.301 11.39768,-78.81497 -15.642,-107.23202 5.49614,-17.96045 11.11267,-64.6943 -17.131,-58.32513 -24.64487,2.76183 -42.1655,30.28062 -67.36559,17.27451 -30.61702,-5.94014 -62.45959,-3.72547 -92.37541,4.77262 -17.29774,-9.10941 -47.89181,-33.47366 -63.29266,-16.99059 -13.01011,25.0325 8.50923,52.80619 -13.99963,72.53056 -15.64578,33.79025 -11.24928,75.80354 7.20162,107.61393 18.3933,29.15505 53.97785,39.77877 86.41767,43.1851 -13.81884,14.96357 -12.43426,41.39558 -40.08441,36.21536 -30.51095,3.46375 -37.90945,-30.70495 -59.50542,-42.974 -16.808652,-12.00826 -35.820525,3.65123 -11.24029,12.99471 20.02669,15.67712 20.09366,48.39881 47.25314,56.60345 13.22946,12.11004 44.85294,-5.25321 48.60898,7.8041 -0.4734,12.38187 1.01994,24.95749 -0.88492,37.19835 C 177.80994,478.9573 148.34576,449.60739 127.16549,439.1897 48.814216,385.55849 12.786303,279.37816 42.289025,189.105 69.878439,95.470201 164.41523,27.583365 262.01941,31.804248 c 99.32395,0.836384 191.52491,76.211022 212.21471,173.330832 21.76553,89.53902 -18.54327,189.53138 -96.48873,238.71231 -18.32576,7.59373 -54.28798,40.95114 -66.62197,13.70375 -0.95112,-27.50036 2.31752,-55.40299 -2.58465,-82.55482 -2.20738,-7.83401 -6.06604,-15.51759 -12.38135,-20.83918 z m 215.867,-97.944 C 513.4058,155.51561 448.76089,58.365867 355.71678,20.12064 263.36332,-20.233838 148.44543,1.5012436 77.263426,72.875043 5.0235783,141.59921 -19.82159,254.22623 16.668949,346.99361 51.775792,442.26918 148.00899,510.695 249.64155,511.89944 c 100.66057,3.96701 199.28758,-58.45215 239.75402,-150.52423 14.94226,-32.90732 22.67006,-69.02704 22.62885,-105.16207 z"
     id="path2"
     inkscape:connector-curvature="0" /></svg>