<svg xmlns="http://www.w3.org/2000/svg" width="513.78" height="491.953"><g fill-rule="evenodd" stroke-width="1.333"><path d="M243.104 313.025c-15.11 28.455-40.965 60.055-71.028 81.261-31.688 23.699-62.851 52.189-89.772 83.175 20.916-42.283 57.465-86.41 85.148-129.453 16.021-31.605 49.362-63.09 71.887-93.854-8.862 26.84 18.757 28.564 3.765 58.87z" fill="#e73900"/><path d="M235.07 266.36c-20.218 27.832-19.625 56.622-55.427 84.334-50.577 45.478-102.98 91.877-155.89 126.647-17.791 10.467 26.126-24.742 32.913-35.727 33.443-36.409 60.324-74.958 82.97-112.281 19.4-27.877 49.555-53.413 75.41-64.146 11.568-8.504 20.93-7.562 20.025 1.173z" fill="#e73900"/><path d="M237.603 256.498c-29.471 26.231-44.685 61.16-78.197 83.582C109.472 385.61 50.43 424.688 10 427.38c33.47-11.79 76.878-44.57 102.693-83.097 15.968-25.25 38.012-52.895 64.715-70.868 24.588-17.267 45.41-19.496 60.195-16.917z" fill="#e73900"/><path d="M236.057 267.855c-16.612 23.114-18.956 48.118-48.806 70.299-42.35 37.495-85.515 73.919-129.158 107.054 35.9-32.747 76.197-71.976 90.957-109.28 16.56-30.517 54.823-65.265 82.956-77.506 3.868.744 4.258 5.082 4.051 9.433z" fill="#e78c00"/><path d="M239.896 301.334c-7.536 29.397-41.328 56.762-70.347 77.11-16.255 11.331-51.776 56.837-24.682 18.255 20.511-33.374 48.334-66.573 64.256-99.029 8.652-14.002 33.438-57.404 29.102-30.506 1.534 10.565 7.737 18.46 1.67 34.17z" fill="#e78c00"/><path d="M233.45 300.36c-7.688 28.468-44.434 50.447-68.368 74.194 20.76-28.465 28.068-53.845 49.358-82.355 10.366-17.343 29.6-47.66 22.389-20.207-.416 8.969.43 17.322-3.379 28.369z" fill="#e7e100"/><path d="M212.201 285.887c-19.068 26.5-49.658 44.3-74.191 65.161-19.799 14.618-41.124 31.407-59.561 37.928 38.26-25.43 63.149-67.308 92.056-101.017 22.513-26.82 59.125-38.57 66.924-29.431-7.666 9.506-17.2 18.024-25.228 27.359z" fill="#e78c00"/><path d="M237.041 267.325c-11.877 28.425-42.591 55.637-70.004 80.976-11.194 11.535-56.871 47.62-26.22 18.696 27.624-27.98 36.548-59.116 64.877-85.963 10.622-8.617 35.022-29.86 31.347-13.71z" fill="#e7e100"/><path d="M235.504 264.171c-25.705 27.902-57.422 49.128-86.729 71.347-33.63 20.485 15.875-14.977 21.337-30.735 13.47-30.141 61.05-57.571 68.057-45.443z" fill="#e7e100"/><path d="M232.595 271.336c-6.47 14.106-40.298 45.427-44.015 44.834 13.485-15.204 33.207-57.905 45.49-53.28.492 2.134 1.481 4.295-1.475 8.446z" fill="#ffff9e"/><path d="M220.878 274.23c-11.081 9.244-49.737 41.28-42.727 29.695 16.869-20.639 38.913-49.512 56.603-45.08-6.28 4.635-7.016 11.57-13.876 15.384z" fill="#ffff9e"/></g><path d="M496.454 13.785C399.38 8.651 306.877 63.422 250.914 140.5c-23.466 31.347-42.232 66.021-57.374 102.08l69.783 71.06c89.555-34.923 174.037-97.128 212.45-187.778 14.812-34.887 23.382-72.912 21.787-110.924l-.946-.986-.16-.167z" fill="#ececec" fill-rule="evenodd" stroke="#000" stroke-width="6.396"/><path d="M389.6 124.498c-23.548-24.61-68.316-2.646-68.363 29.914-2.943 26.916 28.626 46.62 52.138 34.56 24.665-9.728 36.003-44.601 16.226-64.474zm-3.447 3.386c22.407 22.182-.764 63.126-30.767 59.77-25.588-.305-38.4-33.515-22.867-52.59 11.372-17.386 38.522-22.961 53.634-7.18z" fill="#ccc" stroke-width="6.396" stroke-linecap="round"/><path d="M380.397 34.81c18.983-5.357 37.364-13.63 56.742-17.069 20.034-.943 40.081-6.092 60.103-3.277-2.75 24.74-.888 50.3-9.623 73.977-5.284 14.597-6.08 31.251-15.802 43.816L378.263 36.12M239.923 153.88c-22.359-15.88-49.764 2.497-67.373 17.549-26.11 22.97-46.719 51.35-65.814 80.206 28.559-24.74 56.952-52.051 92.71-65.896 6.37-2.216 15.79-1.623 17.5 6.439M352.97 268.996c15.472 22.643-3.399 49.71-18.767 67.043-23.44 25.69-52.188 45.78-81.386 64.35 25.252-28.106 53.074-56 67.566-91.5 2.33-6.33 1.908-15.759-6.12-17.614" fill="red" fill-rule="evenodd" stroke="#000" stroke-width="6.396"/><path d="M207.359 208.673l-13.719 33.925 70.436 70.853 31.766-14.676-88.483-90.102z" fill="#b3b3b3" fill-rule="evenodd" stroke="#000" stroke-width="6.396"/><path d="M350.866 290.366l-29.632 13.367c5.964-10.96-15.882-10.699-2.65-15.677l34.289-20.9c3.89 13.251 10.074 27.444.736 40.353-21.432 39.557-59.783 66.016-96.31 90.477 33.807-27.514 70.5-55.12 90.808-94.678 1.63-4.075 3.146-8.475 2.76-12.942zM106.863 249.15c28.938-28.347 58.31-59.669 97.183-73.873 15.665-9.753 30.608 13.4 10.95 15.093-7.04-6.706-14.271-7.614-21.75-.998-17.59 8.492-34.006 18.813-48.992 31.361l-37.391 28.418z" fill="#d20000" fill-rule="evenodd" stroke-width="6.396"/><path d="M270.193 272.66c-5.773 13.888-31.312 24.43-10.846 36.028 5.461 9.515 14.628-1.611 22.093-3.265 12.524-2.614 12.914-12.833 2.345-18.921l-13.592-13.841z" fill="#999" fill-rule="evenodd" stroke-width="6.396"/><path d="M309.147 217.208c-7.145-9.297-14.761 7.698-22.086 11.08-4.387 5.72-17.473 11.378-16.328 17.138 9.531 12.424-6.248 27.144 10.618 35.422 7.63 8.525 15.85 19.788 20.473.621 10.48-18.618 22.06-44.768 7.323-64.261zM206.516 211.714l-13.762 29.09c5.398 6.48 10.865 17.155 15.948 4.427l15.541-19.776-17.727-13.741z" fill="#ccc" fill-rule="evenodd" stroke-width="6.396"/><path d="M379.527 35.666l92.416 94.107" fill="none" fill-rule="evenodd" stroke="#000" stroke-width="6.396"/><path d="M385.477 173.446c-17.593 20.056-56.21 13.067-60.957-14.717-7.85-31.355 32.194-60.698 58.998-41.341 18.896 12.71 17.899 41.397 1.96 56.058z" fill="#b3b3b3" stroke="#000" stroke-width="6.396" stroke-linecap="round"/><path d="M376.826 164.636c-12.691 14.898-41.145 6.353-40.187-14.263-1.356-21.828 30.367-36.17 43.843-17.444 7.225 9.552 4.783 23.736-3.656 31.707z" fill="#80e5ff" stroke="#000" stroke-width="6.396" stroke-linecap="round"/><path d="M210.103 211.344l87.304 88.901" fill="none" fill-rule="evenodd" stroke="#000" stroke-width="6.396"/><path d="M293.717 206.918c11.3 6.026 2.974 11.874-3.643 17.737l-106.818 104.9c-11.3-6.027-2.974-11.875 3.643-17.738l106.818-104.9z" fill="red" stroke="#000" stroke-width="6.396" stroke-linecap="round"/><path d="M296.091 293.289c67.356-31.463 128.604-81.302 163.449-147.924-46.475 45.05-95.364 91.215-156.37 115.587-10.647 8.61-45.77-.473-23.855 15.253l16.776 17.084z" fill="#ccc" fill-rule="evenodd" stroke-width="6.396"/><path d="M385.883 137.121c-2.4 6.516 3.796 21.787-6.578 20.185l-43.094 1.601c2.401-6.516-3.795-21.787 6.578-20.184l43.094-1.602z" fill="#fff" stroke-width="1.738" stroke-linecap="round"/><path d="M376.826 164.636c-12.691 14.898-41.145 6.353-40.187-14.263-1.356-21.828 30.367-36.17 43.843-17.444 7.225 9.552 4.783 23.736-3.656 31.707z" fill="none" stroke="#000" stroke-width="6.396" stroke-linecap="round"/><path d="M469.035 113.75c12.415-27.785 21.315-58.348 18.588-89.053-9.376 22.772-17.746 49.871-40.3 62.807-5.98 2.679 10.244 12.446 13.772 18.16l7.94 8.085z" fill="#d20000" fill-rule="evenodd" stroke-width="6.396"/><path d="M352.97 268.996c15.472 22.643-3.399 49.71-18.767 67.043-23.44 25.69-52.188 45.78-81.386 64.35 25.252-28.106 53.074-56 67.566-91.5 2.33-6.33 1.908-15.759-6.12-17.614M239.923 153.88c-22.359-15.88-49.764 2.497-67.373 17.549-26.11 22.97-46.719 51.35-65.814 80.206 28.559-24.74 56.952-52.051 92.71-65.896 6.37-2.216 15.79-1.623 17.5 6.439" fill="none" fill-rule="evenodd" stroke="#000" stroke-width="6.396"/><path d="M261.44 138.087c27.764-36.663 63.311-69.704 106.21-87.66 22.237-9.439 49.989 28.298 16.783 34.936-35.943 21.07-72.818 41.807-112.873 53.886-2.777-.107-8.227 2.62-10.12-1.162z" fill="#fff" fill-rule="evenodd" stroke-width="6.396"/><path d="M496.454 13.785C399.38 8.651 306.877 63.422 250.914 140.5c-23.466 31.347-42.232 66.021-57.374 102.08l69.783 71.06c89.555-34.923 174.037-97.128 212.45-187.778 14.812-34.887 23.382-72.912 21.787-110.924l-.946-.986-.16-.167z" fill="none" fill-rule="evenodd" stroke="#000" stroke-width="6.396"/></svg>