<?xml version="1.0" encoding="UTF-8" standalone="no"?>
<svg
   xmlns:dc="http://purl.org/dc/elements/1.1/"
   xmlns:cc="http://creativecommons.org/ns#"
   xmlns:rdf="http://www.w3.org/1999/02/22-rdf-syntax-ns#"
   xmlns:svg="http://www.w3.org/2000/svg"
   xmlns="http://www.w3.org/2000/svg"
   xmlns:sodipodi="http://sodipodi.sourceforge.net/DTD/sodipodi-0.dtd"
   xmlns:inkscape="http://www.inkscape.org/namespaces/inkscape"
   width="513.7804"
   height="491.95261"
   version="1.1"
   id="svg75"
   sodipodi:docname="rocket.svg"
   viewBox="0 0 513.7804 491.95261"
   inkscape:version="0.92.2 5c3e80d, 2017-08-06">
  <defs
     id="defs79" />
  <sodipodi:namedview
     pagecolor="#ffffff"
     bordercolor="#666666"
     borderopacity="1"
     objecttolerance="10"
     gridtolerance="10"
     guidetolerance="10"
     inkscape:pageopacity="0"
     inkscape:pageshadow="2"
     inkscape:window-width="1680"
     inkscape:window-height="1013"
     id="namedview77"
     showgrid="false"
     fit-margin-top="10"
     fit-margin-left="10"
     fit-margin-right="10"
     fit-margin-bottom="10"
     inkscape:zoom="0.959375"
     inkscape:cx="459.03203"
     inkscape:cy="135.74839"
     inkscape:window-x="3360"
     inkscape:window-y="0"
     inkscape:window-maximized="1"
     inkscape:current-layer="svg75"
     inkscape:pagecheckerboard="false" />
  <metadata
     id="metadata1906">image/svg+xml<rdf:RDF>
  <cc:Work
     rdf:about="">
    <dc:format>image/svg+xml</dc:format>
    <dc:type
       rdf:resource="http://purl.org/dc/dcmitype/StillImage" />
    <dc:title />
    <cc:license
       rdf:resource="http://creativecommons.org/publicdomain/zero/1.0/" />
  </cc:Work>
  <cc:License
     rdf:about="http://creativecommons.org/publicdomain/zero/1.0/">
    <cc:permits
       rdf:resource="http://creativecommons.org/ns#Reproduction" />
    <cc:permits
       rdf:resource="http://creativecommons.org/ns#Distribution" />
    <cc:permits
       rdf:resource="http://creativecommons.org/ns#DerivativeWorks" />
  </cc:License>
</rdf:RDF>
</metadata>
  <g
     transform="matrix(-0.26597355,-0.26597355,0.63371805,-0.63371805,38.735971,548.75352)"
     id="svg_29">
    <metadata
       id="svg_28">image/svg+xml</metadata>
    <path
       style="fill:#e73900;fill-rule:evenodd;stroke-width:1.00000039pt"
       d="M 58.95454,347.23395 C 33.865625,312.86185 23.067265,267.53008 39.717775,227.07831 54.73692,183.37847 59.761796,136.31265 52.118831,90.624024 92.285308,140.48791 106.53117,204.14023 135.40647,259.94353 c 29.29699,37.57717 25.80882,88.72358 41.2971,130.76826 -33.79615,-28.16782 -88.959498,-7.73692 -117.74903,-43.47784 z"
       id="svg_27"
       inkscape:connector-curvature="0" />
    <path
       style="fill:#e73900;fill-rule:evenodd;stroke-width:1.00000021pt"
       d="m 161.7809,377.71368 c -14.31356,-37.91126 -69.548193,-60.15922 -54.33971,-110.27097 9.58375,-75.78642 20.87233,-153.74146 54.97488,-222.920397 13.7662,-22.295068 -2.60393,40.134214 5.2885,54.156674 5.57413,55.113193 27.51025,106.736793 55.10054,154.052453 15.93701,37.30107 7.25335,81.24046 -21.17688,110.10917 -5.75921,15.83607 -25.1265,22.4793 -39.84733,14.87307 z"
       id="svg_26"
       inkscape:connector-curvature="0" />
    <path
       style="fill:#e73900;fill-rule:evenodd;stroke-width:1.00000021pt"
       d="m 175.5607,387.49258 c 6.09083,-43.94855 -30.97113,-83.50972 -10.12436,-127.64291 8.28095,-75.31986 45.80742,-152.73514 116.75296,-186.758934 -40.75549,35.710604 -60.73435,95.822124 -36.83733,146.587094 17.44575,32.52016 27.97748,71.72486 11.56421,106.97414 -13.76006,33.02355 -48.7149,51.21088 -81.35548,60.84061 z"
       id="svg_25"
       inkscape:connector-curvature="0" />
    <path
       style="fill:#e78c00;fill-rule:evenodd;stroke-width:1.00000003pt"
       d="m 157.11595,377.31308 c -12.22273,-31.34375 -54.82096,-52.92194 -40.40327,-93.97333 9.12466,-62.99773 21.79922,-125.79285 41.55267,-186.370679 -5.92881,54.163299 -7.93507,116.907909 34.44671,157.986629 26.23601,37.14363 19.62635,94.74858 -10.24748,126.60317 -8.66965,2.4648 -17.55811,-0.65014 -25.34863,-4.24579 z"
       id="svg_24"
       inkscape:connector-curvature="0" />
    <path
       style="fill:#e78c00;fill-rule:evenodd;stroke-width:1.00000039pt"
       d="M 86.962914,353.92651 C 45.865847,324.78678 57.947949,276.53468 74.249301,237.58414 c 9.25633,-21.76559 -9.514149,-85.69525 12.081377,-33.87736 24.180302,42.51531 34.287432,90.66062 65.368472,128.83089 10.05819,17.87414 45.05554,71.67392 2.64163,47.03078 -22.74454,-7.12538 -49.24866,-8.4612 -67.377866,-25.64194 z"
       id="svg_23"
       inkscape:connector-curvature="0" />
    <path
       style="fill:#e7e100;fill-rule:evenodd;stroke-width:1.00000039pt"
       d="M 100.90993,349.60901 C 61.846053,321.0824 89.607199,274.74885 89.958259,237.12917 c 14.483561,38.83803 48.458631,64.62839 62.031171,103.92019 13.11657,21.86312 33.95218,60.95704 -4.10002,33.60818 -16.07978,-7.40439 -33.37526,-13.3275 -46.97948,-25.04853 z"
       id="svg_22"
       inkscape:connector-curvature="0" />
    <path
       style="fill:#e78c00;fill-rule:evenodd;stroke-width:1.00000021pt"
       d="m 168.06467,344.26385 c -13.97043,-35.95353 10.07098,-74.1339 16.97531,-109.94866 9.73872,-27.15486 18.26729,-57.22657 40.66736,-76.91874 -24.11613,50.25112 7.81955,102.93007 16.84675,152.33426 8.09624,38.92266 -38.64146,77.08036 -70.48413,76.02364 -3.45846,-13.54838 -1.54814,-27.79255 -4.00529,-41.4905 z"
       id="svg_21"
       inkscape:connector-curvature="0" />
    <path
       style="fill:#e7e100;fill-rule:evenodd;stroke-width:0.99999985pt"
       d="m 156.26263,378.50754 c -31.10898,-31.79815 -24.52486,-77.50208 -20.62561,-119.12326 -0.64084,-17.93216 17.39072,-82.44242 14.14413,-35.43774 0.67026,43.87096 42.4248,75.47838 39.63886,119.01123 -3.76795,15.1798 -9.70213,51.19234 -33.15738,35.54977 z"
       id="svg_20"
       inkscape:connector-curvature="0" />
    <path
       style="fill:#e7e100;fill-rule:evenodd;stroke-width:0.99999985pt"
       d="m 165.07971,379.78284 c -4.12825,-42.29599 15.59359,-84.06777 28.91695,-124.72097 24.71265,-42.69601 -1.68683,24.34184 17.66816,41.08398 31.33879,34.41001 -6.54007,93.59183 -42.51102,89.5515 z"
       id="svg_19"
       inkscape:connector-curvature="0" />
    <path
       style="fill:#ffff9e;fill-rule:evenodd;stroke-width:1.0000011pt"
       d="m 157.0795,371.83478 c -14.35185,-16.23515 -9.64212,-67.63652 -1.53794,-70.10174 3.23099,22.63497 46.42815,71.88741 14.64519,77.92956 -4.93859,-1.29648 -10.85956,-2.22055 -13.10725,-7.82782 z"
       id="svg_18"
       inkscape:connector-curvature="0" />
    <path
       style="fill:#ffff9e;fill-rule:evenodd;stroke-width:1.0000011pt"
       d="m 173.66742,360.30753 c 3.45253,-16.03746 15.89721,-71.81376 24.49678,-57.1414 7.08796,29.5934 19.92674,69.76669 -21.66077,80.22794 3.08983,-8.61224 -8.56066,-14.6655 -2.83601,-23.08654 z"
       id="svg_17"
       inkscape:connector-curvature="0" />
    <path
       style="fill:#ffff9e;fill-rule:evenodd;stroke-width:1.0000011pt"
       d=""
       id="svg_16"
       inkscape:connector-curvature="0" />
  </g>
  <path
     style="fill:#ececec;fill-rule:evenodd;stroke:#000000;stroke-width:6.39629841"
     d="M 496.45437,13.784969 C 399.37873,8.6514991 306.8769,63.422144 250.91472,140.49955 c -23.46638,31.34794 -42.23313,66.02181 -57.37482,102.08051 23.26114,23.68683 46.52227,47.37366 69.78342,71.06048 89.55482,-34.92313 174.03684,-97.12881 212.44883,-187.77895 14.81254,-34.886459 23.38246,-72.911458 21.78795,-110.923724 l -0.94567,-0.985872 -0.16014,-0.166948 z"
     id="path3217"
     inkscape:connector-curvature="0" />
  <path
     style="fill:#cccccc;fill-rule:nonzero;stroke-width:6.39629841;stroke-linecap:round;stroke-miterlimit:4"
     d="m 389.60067,124.49826 c -23.54896,-24.609776 -68.31643,-2.64634 -68.36385,29.91328 -2.9432,26.91635 28.62608,46.62017 52.13799,34.55953 24.66472,-9.72658 36.00337,-44.60032 16.22586,-64.47281 z m -3.44767,3.38571 c 22.40744,22.18204 -0.76422,63.12645 -30.7667,59.77034 -25.58826,-0.30495 -38.40058,-33.51522 -22.86714,-52.59078 11.37171,-17.38598 38.52185,-22.96072 53.63384,-7.17956 z"
     id="path3219"
     inkscape:connector-curvature="0" />
  <path
     style="fill:#ff0000;fill-rule:evenodd;stroke:#000000;stroke-width:6.39629841"
     d="m 380.39727,34.810581 c 18.98239,-5.357618 37.36382,-13.63005 56.74169,-17.069453 20.03391,-0.943559 40.08127,-6.092065 60.10315,-3.277558 -2.75006,24.740325 -0.88805,50.299872 -9.62307,73.977111 -5.28438,14.597689 -6.08094,31.251799 -15.80249,43.816289 -31.18463,-32.0456 -62.36926,-64.091197 -93.55389,-96.136796"
     id="path2419"
     inkscape:connector-curvature="0" />
  <path
     style="fill:#ff0000;fill-rule:evenodd;stroke:#000000;stroke-width:6.39629841"
     d="m 239.92315,153.88063 c -22.35881,-15.88022 -49.76416,2.49645 -67.3728,17.54819 -26.11111,22.97079 -46.71909,51.34938 -65.81402,80.20574 28.55828,-24.73865 56.95172,-52.05062 92.70911,-65.89604 6.37141,-2.21518 15.79131,-1.62228 17.50058,6.43927"
     id="path2408"
     inkscape:connector-curvature="0" />
  <path
     style="fill:#ff0000;fill-rule:evenodd;stroke:#000000;stroke-width:6.39629841"
     d="m 352.96971,268.99598 c 15.47209,22.64309 -3.39857,49.71061 -18.7671,67.04339 -23.44048,25.69028 -52.18805,45.78032 -81.38589,64.34889 25.25242,-28.105 53.07476,-55.99853 67.56628,-91.49897 2.33036,-6.3302 1.90837,-15.75929 -6.12086,-17.61447"
     id="path2410"
     inkscape:connector-curvature="0" />
  <path
     style="fill:#b3b3b3;fill-rule:evenodd;stroke:#000000;stroke-width:6.39629841"
     d="m 207.35881,208.67261 c -4.57289,11.30834 -9.14578,22.61668 -13.71867,33.92502 23.47856,23.61794 46.95713,47.23588 70.43569,70.85382 10.58882,-4.89203 21.17763,-9.78406 31.76645,-14.67609 -29.49449,-30.03425 -58.98898,-60.0685 -88.48347,-90.10275 z"
     id="path2423"
     inkscape:connector-curvature="0" />
  <path
     style="fill:#d20000;fill-rule:evenodd;stroke-width:6.39629841"
     d="m 350.86618,290.36602 c -9.87732,4.4555 -19.75465,8.91101 -29.63197,13.36651 5.96396,-10.96026 -15.88222,-10.69809 -2.65087,-15.67701 11.42986,-6.96655 22.85973,-13.9331 34.2896,-20.89965 3.8898,13.25114 10.07368,27.4446 0.73567,40.35341 -21.43196,39.55633 -59.78307,66.0158 -96.31038,90.47623 33.80791,-27.51306 70.50065,-55.12017 90.8091,-94.67761 1.63044,-4.07519 3.14613,-8.47515 2.75885,-12.94188 z"
     id="path3209"
     inkscape:connector-curvature="0" />
  <path
     style="fill:#d20000;fill-rule:evenodd;stroke-width:6.39629841"
     d="m 106.86251,249.15069 c 28.93872,-28.34795 58.31075,-59.66972 97.18313,-73.87341 15.66512,-9.75305 30.60846,13.39995 10.95058,15.09298 -7.04028,-6.70585 -14.27146,-7.6142 -21.75041,-0.99832 -17.59039,8.49162 -34.00625,18.81271 -48.99203,31.36134 -12.46375,9.47247 -24.92751,18.94494 -37.39127,28.41741 z"
     id="path3213"
     inkscape:connector-curvature="0" />
  <path
     style="fill:#999999;fill-rule:evenodd;stroke-width:6.39629841"
     d="m 270.19308,272.66076 c -5.77278,13.88729 -31.31193,24.4291 -10.84572,36.02717 5.46062,9.51473 14.62724,-1.6111 22.09311,-3.2646 12.5235,-2.61392 12.91345,-12.83346 2.34465,-18.92183 -4.53068,-4.61358 -9.06136,-9.22716 -13.59204,-13.84074 z"
     id="path3232"
     inkscape:connector-curvature="0" />
  <path
     style="fill:#cccccc;fill-rule:evenodd;stroke-width:6.39629841"
     d="m 309.14687,217.20752 c -7.14529,-9.29638 -14.76097,7.69814 -22.08624,11.08045 -4.38616,5.72031 -17.47271,11.37841 -16.32806,17.13826 9.5319,12.42403 -6.24729,27.14398 10.6189,35.42142 7.62978,8.52562 15.84915,19.78848 20.47268,0.62169 10.47929,-18.61788 22.059,-44.7687 7.32272,-64.26182 z"
     id="path3227"
     inkscape:connector-curvature="0" />
  <path
     style="fill:#cccccc;fill-rule:evenodd;stroke-width:6.39629841"
     d="m 206.51624,211.71378 c -4.58729,9.69646 -9.17459,19.39291 -13.76188,29.08937 5.39784,6.48165 10.86437,17.15631 15.94749,4.42785 5.18051,-6.592 10.36103,-13.18401 15.54154,-19.77601 -5.90905,-4.5804 -11.8181,-9.16081 -17.72715,-13.74121 z"
     id="path3241"
     inkscape:connector-curvature="0" />
  <path
     style="fill:none;fill-rule:evenodd;stroke:#000000;stroke-width:6.39629841"
     d="m 379.52658,35.665624 c 30.80537,31.369119 61.61074,62.738237 92.41611,94.107356"
     id="path2394"
     inkscape:connector-curvature="0" />
  <path
     style="fill:#b3b3b3;fill-rule:nonzero;stroke:#000000;stroke-width:6.39629841;stroke-linecap:round;stroke-miterlimit:4"
     d="m 385.47734,173.44576 c -17.59376,20.05606 -56.2104,13.06701 -60.95765,-14.71643 -7.84951,-31.35569 32.19383,-60.698148 58.99833,-41.34179 18.89551,12.71049 17.8986,41.39756 1.95932,56.05822 z"
     id="path2400"
     inkscape:connector-curvature="0" />
  <path
     style="fill:#80e5ff;fill-rule:nonzero;stroke:#000000;stroke-width:6.39629841;stroke-linecap:round;stroke-miterlimit:4"
     d="m 376.82563,164.63572 c -12.691,14.8983 -41.14413,6.35319 -40.18685,-14.26316 -1.35577,-21.82759 30.36679,-36.16935 43.84305,-17.4432 7.22471,9.55184 4.78321,23.73614 -3.6562,31.70636 z"
     id="path2402"
     inkscape:connector-curvature="0" />
  <path
     style="fill:none;fill-rule:evenodd;stroke:#000000;stroke-width:6.39629841"
     d="m 210.10322,211.34385 c 29.10123,29.6338 58.20247,59.26759 87.3037,88.90139"
     id="path2417"
     inkscape:connector-curvature="0" />
  <path
     style="fill:#ff0000;fill-rule:nonzero;stroke:#000000;stroke-width:6.39629841;stroke-linecap:round;stroke-miterlimit:4"
     d="m 293.71746,206.91781 c 11.2999,6.02589 2.97319,11.87382 -3.64297,17.73726 -35.60628,34.96638 -71.21255,69.93276 -106.81883,104.89914 -11.29991,-6.02589 -2.97321,-11.87382 3.64296,-17.73726 35.60628,-34.96638 71.21256,-69.93276 106.81884,-104.89914 z"
     id="rect2414"
     inkscape:connector-curvature="0" />
  <path
     style="fill:#cccccc;fill-rule:evenodd;stroke-width:6.39629841"
     d="m 296.09143,293.28892 c 67.3558,-31.46268 128.60328,-81.30152 163.44824,-147.92432 -46.47516,45.05044 -95.36354,91.21517 -156.37033,115.58713 -10.64652,8.60956 -45.77024,-0.4726 -23.85451,15.25357 5.5922,5.69454 11.1844,11.38908 16.7766,17.08362 z"
     id="path2425"
     inkscape:connector-curvature="0" />
  <path
     style="fill:#ffffff;fill-rule:nonzero;stroke-width:1.73791313;stroke-linecap:round;stroke-miterlimit:4"
     d="m 385.88303,137.12116 c -2.40095,6.51608 3.79566,21.78708 -6.57818,20.18439 -14.36454,0.53396 -28.72907,1.06792 -43.09361,1.60188 2.40096,-6.51609 -3.79565,-21.78708 6.57819,-20.18439 14.36454,-0.53396 28.72906,-1.06792 43.0936,-1.60188 z"
     id="rect2429"
     inkscape:connector-curvature="0" />
  <path
     style="fill:none;fill-rule:nonzero;stroke:#000000;stroke-width:6.39629841;stroke-linecap:round;stroke-miterlimit:4"
     d="m 376.82563,164.63572 c -12.691,14.8983 -41.14413,6.35319 -40.18685,-14.26316 -1.35577,-21.82759 30.36679,-36.16935 43.84305,-17.4432 7.22471,9.55184 4.78321,23.73614 -3.6562,31.70636 z"
     id="path2431"
     inkscape:connector-curvature="0" />
  <path
     style="fill:#d20000;fill-rule:evenodd;stroke-width:6.39629841"
     d="m 469.03461,113.74947 c 12.41573,-27.784644 21.3153,-58.347031 18.58812,-89.052647 -9.37574,22.772015 -17.74526,49.871472 -40.30033,62.80674 -5.98025,2.67945 10.24488,12.446745 13.77273,18.161137 2.64649,2.69492 5.29299,5.38985 7.93948,8.08477 z"
     id="path2437"
     inkscape:connector-curvature="0" />
  <path
     style="fill:none;fill-rule:evenodd;stroke:#000000;stroke-width:6.39629841"
     d="m 352.96971,268.99598 c 15.47209,22.64309 -3.39857,49.71061 -18.7671,67.04339 -23.44048,25.69028 -52.18805,45.78032 -81.38589,64.34889 25.25242,-28.105 53.07476,-55.99853 67.56628,-91.49897 2.33036,-6.3302 1.90837,-15.75929 -6.12086,-17.61447"
     id="path3211"
     inkscape:connector-curvature="0" />
  <path
     style="fill:none;fill-rule:evenodd;stroke:#000000;stroke-width:6.39629841"
     d="m 239.92315,153.88063 c -22.35881,-15.88022 -49.76416,2.49645 -67.3728,17.54819 -26.11111,22.97079 -46.71909,51.34938 -65.81402,80.20574 28.55828,-24.73865 56.95172,-52.05062 92.70911,-65.89604 6.37141,-2.21518 15.79131,-1.62228 17.50058,6.43927"
     id="path3215"
     inkscape:connector-curvature="0" />
  <path
     style="fill:#ffffff;fill-rule:evenodd;stroke-width:6.39629841"
     d="m 261.43948,138.08654 c 27.76501,-36.66241 63.31165,-69.703229 106.21041,-87.660042 22.2374,-9.438533 49.98864,28.298265 16.78284,34.93669 -35.94234,21.069162 -72.8179,41.806662 -112.87315,53.886082 -2.77668,-0.10695 -8.2262,2.62054 -10.1201,-1.16273 z"
     id="path3239"
     inkscape:connector-curvature="0" />
  <path
     style="fill:none;fill-rule:evenodd;stroke:#000000;stroke-width:6.39629841"
     d="M 496.45437,13.784969 C 399.37873,8.6514991 306.8769,63.422144 250.91472,140.49955 c -23.46638,31.34794 -42.23313,66.02181 -57.37482,102.08051 23.26114,23.68683 46.52227,47.37366 69.78342,71.06048 89.55482,-34.92313 174.03684,-97.12881 212.44883,-187.77895 14.81254,-34.886459 23.38246,-72.911458 21.78795,-110.923724 l -0.94567,-0.985872 -0.16014,-0.166948 z"
     id="path2382"
     inkscape:connector-curvature="0" />
  <path
     style="fill:#e73900;fill-rule:evenodd;stroke-width:2.13210028pt"
     inkscape:connector-curvature="0"
     d=""
     id="svg_1756" />
  <path
     style="fill:#e73900;fill-rule:evenodd;stroke-width:2.13209993pt"
     inkscape:connector-curvature="0"
     d=""
     id="svg_1755" />
  <path
     style="fill:#e73900;fill-rule:evenodd;stroke-width:2.13209993pt"
     inkscape:connector-curvature="0"
     d=""
     id="svg_1754" />
  <path
     style="fill:#e78c00;fill-rule:evenodd;stroke-width:2.13209957pt"
     inkscape:connector-curvature="0"
     d=""
     id="svg_1753" />
  <path
     style="fill:#e78c00;fill-rule:evenodd;stroke-width:2.13210028pt"
     inkscape:connector-curvature="0"
     d=""
     id="svg_1752" />
  <path
     style="fill:#e7e100;fill-rule:evenodd;stroke-width:2.13210028pt"
     inkscape:connector-curvature="0"
     d=""
     id="svg_1751" />
  <path
     style="fill:#e78c00;fill-rule:evenodd;stroke-width:2.13209993pt"
     inkscape:connector-curvature="0"
     d=""
     id="svg_1750" />
  <path
     style="fill:#e7e100;fill-rule:evenodd;stroke-width:2.13209921pt"
     inkscape:connector-curvature="0"
     d=""
     id="svg_1749" />
  <path
     style="fill:#e7e100;fill-rule:evenodd;stroke-width:2.13209921pt"
     inkscape:connector-curvature="0"
     d=""
     id="svg_1748" />
  <path
     style="fill:#ffff9e;fill-rule:evenodd;stroke-width:2.13210171pt"
     inkscape:connector-curvature="0"
     d=""
     id="svg_1747" />
  <path
     style="fill:#ffff9e;fill-rule:evenodd;stroke-width:2.13210171pt"
     inkscape:connector-curvature="0"
     d=""
     id="svg_1746" />
  <path
     style="fill:#ffff9e;fill-rule:evenodd;stroke-width:2.13210171pt"
     inkscape:connector-curvature="0"
     d=""
     id="svg_1745" />
  <path
     style="fill:#e73900;fill-rule:evenodd;stroke-width:2.13210028pt"
     inkscape:connector-curvature="0"
     d=""
     id="svg_13" />
  <path
     style="fill:#e73900;fill-rule:evenodd;stroke-width:2.13209993pt"
     inkscape:connector-curvature="0"
     d=""
     id="svg_12" />
  <path
     style="fill:#e73900;fill-rule:evenodd;stroke-width:2.13209993pt"
     inkscape:connector-curvature="0"
     d=""
     id="svg_11" />
  <path
     style="fill:#e78c00;fill-rule:evenodd;stroke-width:2.13209957pt"
     inkscape:connector-curvature="0"
     d=""
     id="svg_10" />
  <path
     style="fill:#e78c00;fill-rule:evenodd;stroke-width:2.13210028pt"
     inkscape:connector-curvature="0"
     d=""
     id="svg_9" />
  <path
     style="fill:#e7e100;fill-rule:evenodd;stroke-width:2.13210028pt"
     inkscape:connector-curvature="0"
     d=""
     id="svg_8" />
  <path
     style="fill:#e78c00;fill-rule:evenodd;stroke-width:2.13209993pt"
     inkscape:connector-curvature="0"
     d=""
     id="svg_7" />
  <path
     style="fill:#e7e100;fill-rule:evenodd;stroke-width:2.13209921pt"
     inkscape:connector-curvature="0"
     d=""
     id="svg_6" />
  <path
     style="fill:#e7e100;fill-rule:evenodd;stroke-width:2.13209921pt"
     inkscape:connector-curvature="0"
     d=""
     id="svg_5" />
  <path
     style="fill:#ffff9e;fill-rule:evenodd;stroke-width:2.13210171pt"
     inkscape:connector-curvature="0"
     d=""
     id="svg_4" />
  <g
     id="svg_1758"
     transform="matrix(2.1320995,0,0,2.1320995,-686.53718,-194.3843)" />
  <g
     id="svg_15"
     transform="matrix(2.1320995,0,0,2.1320995,-686.53718,-194.3843)">
    <path
       style="fill:#ffff9e;fill-rule:evenodd;stroke-width:1.0000011pt"
       inkscape:connector-curvature="0"
       d=""
       id="svg_3" />
    <path
       style="fill:#ffff9e;fill-rule:evenodd;stroke-width:1.0000011pt"
       inkscape:connector-curvature="0"
       d=""
       id="svg_2" />
  </g>
</svg>
