<svg xmlns="http://www.w3.org/2000/svg" xmlns:xlink="http://www.w3.org/1999/xlink" viewBox="0 0 309.57 315.94"><defs><linearGradient id="a"><stop offset="0" stop-color="#fff"/><stop offset="1" stop-color="#fff" stop-opacity="0"/></linearGradient><linearGradient id="b" y2="299.8" gradientUnits="userSpaceOnUse" x2="325.27" y1="221.01" x1="327.29"><stop offset="0" stop-color="#fff"/><stop offset="1" stop-color="#0080e8" stop-opacity="0"/></linearGradient><linearGradient id="c" y2="100.8" xlink:href="#a" gradientUnits="userSpaceOnUse" x2="510.13" y1="79.585" x1="485.88"/><linearGradient id="d" y2="204.51" xlink:href="#a" gradientUnits="userSpaceOnUse" x2="541.43" y1="180.22" x1="560.71"/></defs><path d="M18.62 173.806l47.684 14.582 69.256-27.02c7.72-17.572 14.603-35.738 22.84-52.942 11.442-10.955 24.173-20.74 34.772-32.46 7.008-10.092 15.48-19.473 21.548-30.023 3.44-11.231 11.527-41.853 27.284-26.362C255.56 32.118 256.2 53.074 246.08 67.91c-4.142 8.681-10.844 16.28-10.704 26.345l-3.389 23.542 75.714 30.714 1.868 71.357-29.725 65.072c-34.789-1.364-69.694-2.074-104.41-3.846l-36.303-11.868 2.143 23.57-122.65 23.154-.005-142.144z" fill="#3e3e3e"/><path d="M215.7.006c-14.224 5.772-13.62 24.622-20.956 35.964-10.244 12.889-18.429 27.645-31.591 37.887-7.62 7.248-16.07 13.908-23.172 21.524-7.093 16.855-14.524 34.025-21.405 50.685l4.781 109.22c12.453 3.726 24.67 8.779 37.268 11.686l101.792 3.502 29.75-65.062-1.875-71.376-75.72-30.71c1.904-11.298 2.763-22.974 5.321-34.037 8.723-15.754 22.289-34.345 12.578-52.769C229.054 9.667 223.709 1.6 215.7.006z" fill="#e8cc4c"/><path d="M124.67 278.496l-5.832-132.69-69.99 26.975L.003 156.742l.729 146.54 123.939-24.786z" fill="#0080e8"/><path d="M291.46 214.53l42.355 18.897 67.211-31.019 1.01 46.885-112.13 44.447 1.554-79.21z" fill="url(#b)" transform="translate(-285.42 -49.744)"/><path d="M412.14 194.74l21.213-51.518c14.909-16.196 31.455-30.882 46.099-47.263 9.245-11.177 9.957-26.472 16.695-38.687 14.296-.12 14.177 23.963 13.606 35.216-6.792 14.628-10.296 30.65-12.134 46.79.205 9.2-8.315 24.359 5.746 24.925l64.338 21.446 6.061 56.569L412.14 194.74z" fill="url(#c)" transform="translate(-285.42 -49.744)"/><path d="M498.57 156.65l72.857 28.571 2.143 54.286-75-82.857z" fill="url(#d)" transform="translate(-285.42 -49.744)"/></svg>