<?xml version="1.0" encoding="UTF-8" standalone="no"?>
<!-- Generator: Adobe Illustrator 16.2.1, SVG Export Plug-In . SVG Version: 6.00 Build 0)  -->

<svg
   xmlns:dc="http://purl.org/dc/elements/1.1/"
   xmlns:cc="http://creativecommons.org/ns#"
   xmlns:rdf="http://www.w3.org/1999/02/22-rdf-syntax-ns#"
   xmlns:svg="http://www.w3.org/2000/svg"
   xmlns="http://www.w3.org/2000/svg"
   xmlns:sodipodi="http://sodipodi.sourceforge.net/DTD/sodipodi-0.dtd"
   xmlns:inkscape="http://www.inkscape.org/namespaces/inkscape"
   version="1.1"
   id="Layer_1"
   x="0px"
   y="0px"
   width="489.49329"
   height="450.61923"
   viewBox="0 0 489.49328 450.61923"
   xml:space="preserve"
   sodipodi:docname="cheat-wi.svg"
   inkscape:version="0.92.2 5c3e80d, 2017-08-06"><metadata
     id="metadata9"><rdf:RDF><cc:Work
         rdf:about=""><dc:format>image/svg+xml</dc:format><dc:type
           rdf:resource="http://purl.org/dc/dcmitype/StillImage" /><dc:title></dc:title></cc:Work></rdf:RDF></metadata><defs
     id="defs7" /><sodipodi:namedview
     pagecolor="#ffffff"
     bordercolor="#666666"
     borderopacity="1"
     objecttolerance="10"
     gridtolerance="10"
     guidetolerance="10"
     inkscape:pageopacity="0"
     inkscape:pageshadow="2"
     inkscape:window-width="1362"
     inkscape:window-height="764"
     id="namedview5"
     showgrid="false"
     inkscape:zoom="0.4609375"
     inkscape:cx="-188.62494"
     inkscape:cy="207.07607"
     inkscape:window-x="2389"
     inkscape:window-y="347"
     inkscape:window-maximized="0"
     inkscape:current-layer="Layer_1"
     fit-margin-top="0"
     fit-margin-left="0"
     fit-margin-right="0"
     fit-margin-bottom="0" /><path
     id="path819"
     d="m 489.49328,81.591631 -0.16287,6.62344 c -15.25562,0.43432 -24.43071,8.57789 -30.29408,21.879059 -13.57262,31.37988 -56.08205,130.29711 -84.31309,194.6856 h -7.3835 L 322.87585,199.94484 c -17.64441,34.52874 -37.08039,70.57761 -53.85615,104.83489 -0.16287,0.16287 -8.14356,0 -8.14356,-0.16287 C 235.41391,245.06022 208.703,185.9379 183.18648,126.21839 176.99737,111.72284 156.36699,88.215071 142.14289,88.377941 c 0,-1.683 -0.16287,-5.42904 -0.16287,-7.70924 h 87.89626 v 7.54637 c -10.42377,0.5972 -28.66537,7.22063 -23.50777,18.567339 11.88961,26.98236 56.24492,130.45998 68.18882,156.68228 8.14357,-16.12427 31.37989,-59.28519 40.88072,-77.52679 -7.54637,-15.3642 -31.81421,-72.69493 -39.52346,-86.864739 -5.26617,-9.6637 -19.59885,-10.53235 -30.29408,-10.69522 v -7.54637 l 77.36392,0.16287 v 7.11205 c -10.53235,0.32574 -20.68467,4.23466 -15.9614,14.169809 10.2609,21.71618 16.61288,36.97181 26.11371,56.84211 3.04027,-5.86337 18.83879,-37.67758 26.11372,-54.72478 4.83185,-11.183839 -2.11733,-15.527069 -20.95612,-15.961399 0.16287,-1.95445 0,-5.59192 0.16287,-7.3835 24.10496,-0.16287 60.3167,-0.16287 66.83156,-0.32574 v 7.3835 c -12.21535,0.43432 -24.86503,6.94918 -31.54276,17.210079 l -32.13995,66.66868 c 3.47459,8.74077 34.36586,77.52679 37.569,85.07316 L 445.62658,103.63356 C 440.9576,91.092461 425.86486,88.377941 420.00149,88.269361 v -7.54637 l 69.38321,0.59719 z"
     inkscape:connector-curvature="0"
     style="stroke-width:0.54290462" /><path
     style="stroke:#ffffff;stroke-width:15;stroke-miterlimit:4;stroke-dasharray:none;stroke-opacity:1"
     d="M 272.03256,7.5127336 C 351.87019,6.7556656 427.35813,69.600892 440.16732,148.57914 453.63252,219.14433 418.13801,296.99916 354.13586,330.65077 299.93297,360.89405 228.80497,359.20513 177.0892,324.36625 139.29767,363.4096 100.35011,401.31846 62.167319,439.97953 44.968749,422.78096 27.770189,405.5824 10.571619,388.38383 48.759969,349.68663 88.221699,311.58981 125.63412,272.53422 82.573709,206.74073 92.516989,110.78635 150.44169,56.906196 182.53239,25.578851 227.06173,6.9438376 272.03256,7.5127336 Z m -3.9043,56.0273444 C 209.9202,63.812251 156.10787,115.0387 154.84506,173.65141 c -2.96617,51.09961 31.0711,102.67013 80.75153,117.04216 42.80952,13.93028 94.44823,0.61777 123.34808,-34.90935 29.45534,-33.98048 37.07315,-85.74942 16.51172,-126.29492 -18.67394,-39.123661 -60.23068,-66.367604 -103.87891,-65.917972 -1.14969,-0.02032 -2.29937,-0.02945 -3.44922,-0.03125 z"
     id="path2"
     inkscape:connector-curvature="0" /></svg>