<?xml version="1.0" encoding="UTF-8" standalone="no"?>
<!-- Generator: Adobe Illustrator 16.2.1, SVG Export Plug-In . SVG Version: 6.00 Build 0)  -->

<svg
   xmlns:dc="http://purl.org/dc/elements/1.1/"
   xmlns:cc="http://creativecommons.org/ns#"
   xmlns:rdf="http://www.w3.org/1999/02/22-rdf-syntax-ns#"
   xmlns:svg="http://www.w3.org/2000/svg"
   xmlns="http://www.w3.org/2000/svg"
   xmlns:sodipodi="http://sodipodi.sourceforge.net/DTD/sodipodi-0.dtd"
   xmlns:inkscape="http://www.inkscape.org/namespaces/inkscape"
   version="1.1"
   id="Layer_1"
   x="0px"
   y="0px"
   width="468.23917"
   height="450.61911"
   viewBox="0 0 468.23916 450.61911"
   xml:space="preserve"
   sodipodi:docname="cheat-md.svg"
   inkscape:version="0.92.2 5c3e80d, 2017-08-06"><metadata
     id="metadata9"><rdf:RDF><cc:Work
         rdf:about=""><dc:format>image/svg+xml</dc:format><dc:type
           rdf:resource="http://purl.org/dc/dcmitype/StillImage" /><dc:title></dc:title></cc:Work></rdf:RDF></metadata><defs
     id="defs7" /><sodipodi:namedview
     pagecolor="#ffffff"
     bordercolor="#666666"
     borderopacity="1"
     objecttolerance="10"
     gridtolerance="10"
     guidetolerance="10"
     inkscape:pageopacity="0"
     inkscape:pageshadow="2"
     inkscape:window-width="1372"
     inkscape:window-height="941"
     id="namedview5"
     showgrid="false"
     inkscape:zoom="0.4609375"
     inkscape:cx="-187.96763"
     inkscape:cy="278.05795"
     inkscape:window-x="1944"
     inkscape:window-y="207"
     inkscape:window-maximized="0"
     inkscape:current-layer="Layer_1"
     fit-margin-top="0"
     fit-margin-left="0"
     fit-margin-right="0"
     fit-margin-bottom="0" /><path
     id="path819"
     d="M 440.07755,47.27661 H 105.8923 c -15.528432,0 -28.161611,12.633184 -28.161611,28.161614 V 263.1828 c 0,15.5292 12.633179,28.16161 28.161611,28.16161 h 334.18525 c 15.5292,0 28.16162,-12.63241 28.16162,-28.16161 V 75.438224 c 0,-15.52843 -12.63242,-28.161614 -28.16162,-28.161614 z m -142.68585,195.20656 -48.81355,0.0477 v -73.22034 l -36.61017,46.93615 -36.61016,-46.93615 v 73.22034 H 126.54425 V 96.090174 h 48.81357 l 36.61016,48.813546 36.61017,-48.813546 48.81355,-0.0477 z m 72.87369,12.2034 -60.6703,-85.37606 h 36.61018 V 96.090174 h 48.81356 v 73.220336 h 36.61016 z"
     inkscape:connector-curvature="0"
     style="stroke-width:0.38135591" /><path
     style="stroke:#ffffff;stroke-width:15;stroke-miterlimit:4;stroke-dasharray:none;stroke-opacity:1"
     d="M 272.0306,7.5126451 C 351.88259,6.7551461 427.37879,69.623041 440.17708,148.61615 453.65578,219.33589 417.94714,297.36633 353.69727,330.89284 299.55218,360.891 228.66531,359.10996 177.08919,324.36615 139.29485,363.40706 100.35041,401.31858 62.167318,439.97944 44.968748,422.78087 27.770178,405.5823 10.571608,388.38373 48.759548,349.68678 88.219808,311.58912 125.63216,272.53412 82.575388,206.74115 92.517208,110.78865 150.43777,56.908059 182.5283,25.58049 227.06019,6.9457631 272.0306,7.5126451 Z m -2.82813,56.0351559 c -55.43212,-0.177748 -107.8953,45.762909 -113.70898,101.558589 -6.6809,51.191 24.49552,106.14301 73.94336,123.46484 40.97483,15.64828 90.84234,6.57608 122.02167,-24.82196 35.47076,-33.7467 46.44106,-91.13353 23.68927,-134.92804 C 355.89234,89.217611 313.48387,62.311215 269.20247,63.547801 Z"
     id="path2"
     inkscape:connector-curvature="0" /></svg>