<?xml version="1.0" encoding="UTF-8" standalone="no"?>
<!-- Created with Inkscape (http://www.inkscape.org/) -->

<svg
   xmlns:dc="http://purl.org/dc/elements/1.1/"
   xmlns:cc="http://creativecommons.org/ns#"
   xmlns:rdf="http://www.w3.org/1999/02/22-rdf-syntax-ns#"
   xmlns:svg="http://www.w3.org/2000/svg"
   xmlns="http://www.w3.org/2000/svg"
   xmlns:xlink="http://www.w3.org/1999/xlink"
   xmlns:sodipodi="http://sodipodi.sourceforge.net/DTD/sodipodi-0.dtd"
   xmlns:inkscape="http://www.inkscape.org/namespaces/inkscape"
   id="svg2"
   sodipodi:docname="thumb.svg"
   viewBox="0 0 309.57 315.94"
   version="1.1"
   inkscape:version="0.92.2 5c3e80d, 2017-08-06">
  <defs
     id="defs4">
    <linearGradient
       id="linearGradient3851"
       inkscape:collect="always">
      <stop
         id="stop3853"
         style="stop-color:#ffffff"
         offset="0" />
      <stop
         id="stop3855"
         style="stop-color:#ffffff;stop-opacity:0"
         offset="1" />
    </linearGradient>
    <linearGradient
       id="linearGradient3847"
       y2="299.8"
       gradientUnits="userSpaceOnUse"
       x2="325.27"
       y1="221.01"
       x1="327.29"
       inkscape:collect="always">
      <stop
         id="stop3843"
         style="stop-color:#ffffff"
         offset="0" />
      <stop
         id="stop3845"
         style="stop-color:#0080e8;stop-opacity:0"
         offset="1" />
    </linearGradient>
    <linearGradient
       id="linearGradient3857"
       y2="100.8"
       xlink:href="#linearGradient3851"
       gradientUnits="userSpaceOnUse"
       x2="510.13"
       y1="79.585"
       x1="485.88"
       inkscape:collect="always" />
    <linearGradient
       id="linearGradient3865"
       y2="204.51"
       xlink:href="#linearGradient3851"
       gradientUnits="userSpaceOnUse"
       x2="541.43"
       y1="180.22"
       x1="560.71"
       inkscape:collect="always" />
  </defs>
  <sodipodi:namedview
     id="base"
     bordercolor="#666666"
     inkscape:pageshadow="2"
     inkscape:window-y="0"
     fit-margin-left="0"
     pagecolor="#ffffff"
     inkscape:window-height="1013"
     inkscape:window-maximized="1"
     inkscape:zoom="0.7"
     inkscape:window-x="3360"
     showgrid="false"
     borderopacity="1.0"
     inkscape:current-layer="layer1"
     inkscape:cx="80.413883"
     inkscape:cy="91.572393"
     fit-margin-top="0"
     fit-margin-right="0"
     fit-margin-bottom="0"
     inkscape:window-width="1680"
     inkscape:pageopacity="0.0"
     inkscape:document-units="px" />
  <g
     id="layer1"
     inkscape:label="Layer 1"
     inkscape:groupmode="layer"
     transform="translate(-285.42 -49.744)">
    <path
       style="fill:#3e3e3e"
       d="m 304.04,223.55 c 15.89467,4.86067 31.78933,9.72133 47.684,14.582 23.08533,-9.00667 46.17067,-18.01333 69.256,-27.02 7.71947,-17.57213 14.60305,-35.73788 22.84031,-52.94229 11.44185,-10.95481 24.17249,-20.74053 34.77192,-32.45951 7.00804,-10.09252 15.48065,-19.47339 21.54782,-30.023069 3.44001,-11.231262 11.52674,-41.853252 27.28351,-26.36219 13.55724,12.53683 14.19596,33.492789 4.07699,48.328879 -4.14138,8.68141 -10.84332,16.27929 -10.70321,26.34507 -1.12974,7.84737 -2.25949,15.69474 -3.38924,23.54211 25.238,10.238 50.476,20.476 75.714,30.714 0.62267,23.78567 1.24533,47.57133 1.868,71.357 -9.90833,21.69067 -19.81667,43.38133 -29.725,65.072 -34.78906,-1.36436 -69.69397,-2.07432 -104.41086,-3.8463 -12.10071,-3.95603 -24.20143,-7.91207 -36.30214,-11.8681 0.7143,7.857 1.4286,15.714 2.1429,23.571 -40.88333,7.71767 -81.76667,15.43533 -122.65,23.153 -0.002,-47.3812 -0.003,-94.7624 -0.005,-142.1436 z"
       id="path3781-4"
       inkscape:connector-curvature="0" />
    <path
       style="fill:#e8cc4c"
       d="m 501.12,49.75 c -14.22372,5.771953 -13.62008,24.621736 -20.95602,35.96422 -10.24419,12.888437 -18.42901,27.64516 -31.59111,37.88644 -7.61974,7.24867 -16.06937,13.90808 -23.17209,21.52386 -7.09231,16.85579 -14.52426,34.02535 -21.40478,50.68548 1.59373,36.40667 3.18747,72.81333 4.7812,109.22 12.4528,3.72577 24.67032,8.77893 37.26826,11.68583 33.93058,1.16722 67.86116,2.33445 101.79174,3.50167 9.91667,-21.68733 19.83333,-43.37467 29.75,-65.062 -0.625,-23.79167 -1.25,-47.58333 -1.875,-71.375 -25.24,-10.23667 -50.48,-20.47333 -75.72,-30.71 1.90401,-11.29863 2.76316,-22.97453 5.32111,-34.03704 8.72243,-15.75453 22.28864,-34.345355 12.57773,-52.769335 C 514.47351,59.410625 509.12902,51.343942 501.12,49.75 Z"
       id="path3781"
       inkscape:connector-curvature="0" />
    <path
       style="fill:#0080e8"
       d="m 410.09,328.24 c -1.94413,-44.23 -3.88827,-88.46 -5.8324,-132.69 -23.32967,8.99167 -46.65933,17.98333 -69.989,26.975 -16.28233,-5.34633 -32.56467,-10.69267 -48.847,-16.039 0.24302,48.84667 0.48604,97.69333 0.72906,146.54 41.31311,-8.262 82.62623,-16.524 123.93934,-24.786 z"
       id="path3801"
       inkscape:connector-curvature="0" />
    <path
       style="fill:url(#linearGradient3847)"
       d="m 291.46,214.53 c 14.11833,6.299 28.23667,12.598 42.355,18.897 22.40367,-10.33967 44.80733,-20.67933 67.211,-31.019 0.33673,15.62833 0.67347,31.25667 1.0102,46.885 -37.37667,14.81567 -74.75333,29.63133 -112.13,44.447 0.51793,-26.40333 1.03587,-52.80667 1.5538,-79.21 z"
       id="path3839"
       inkscape:connector-curvature="0" />
    <path
       style="fill:url(#linearGradient3857)"
       d="m 412.14,194.74 c 7.071,-17.17267 14.142,-34.34533 21.213,-51.518 14.90864,-16.19623 31.45504,-30.88218 46.09865,-47.263281 9.24556,-11.176968 9.95749,-26.471608 16.69525,-38.686219 14.29642,-0.120718 14.17696,23.962115 13.60625,35.215273 -6.79198,14.628467 -10.29582,30.650637 -12.13442,46.790927 0.20573,9.19989 -8.315,24.35793 5.74602,24.92386 21.44615,7.14881 42.8923,14.29763 64.33845,21.44644 2.0203,18.85633 4.0406,37.71267 6.0609,56.569 C 519.8894,226.392 466.0147,210.566 412.14,194.74 Z"
       id="path3849"
       inkscape:connector-curvature="0" />
    <path
       style="fill:url(#linearGradient3865)"
       d="m 498.57,156.65 c 24.28567,9.52367 48.57133,19.04733 72.857,28.571 0.7143,18.09533 1.4286,36.19067 2.1429,54.286 C 548.56993,211.888 523.56997,184.269 498.57,156.65 Z"
       id="path3863"
       inkscape:connector-curvature="0" />
  </g>
  <metadata
     id="metadata19">
    <rdf:RDF>
      <cc:Work>
        <dc:format>image/svg+xml</dc:format>
        <dc:type
           rdf:resource="http://purl.org/dc/dcmitype/StillImage" />
        <cc:license
           rdf:resource="http://creativecommons.org/licenses/publicdomain/" />
        <dc:publisher>
          <cc:Agent
             rdf:about="http://openclipart.org/">
            <dc:title>Openclipart</dc:title>
          </cc:Agent>
        </dc:publisher>
        <dc:title>Thumbs up</dc:title>
        <dc:date>2012-06-08T15:29:04</dc:date>
        <dc:description>Thumbs up icon</dc:description>
        <dc:source>https://openclipart.org/detail/170480/thumbs-up-by-diamonjohn-170480</dc:source>
        <dc:creator>
          <cc:Agent>
            <dc:title>diamonjohn</dc:title>
          </cc:Agent>
        </dc:creator>
        <dc:subject>
          <rdf:Bag>
            <rdf:li>agree</rdf:li>
            <rdf:li>hand</rdf:li>
            <rdf:li>like</rdf:li>
            <rdf:li>thumb up</rdf:li>
            <rdf:li>thumbs up</rdf:li>
            <rdf:li>thumbsup</rdf:li>
          </rdf:Bag>
        </dc:subject>
      </cc:Work>
      <cc:License
         rdf:about="http://creativecommons.org/licenses/publicdomain/">
        <cc:permits
           rdf:resource="http://creativecommons.org/ns#Reproduction" />
        <cc:permits
           rdf:resource="http://creativecommons.org/ns#Distribution" />
        <cc:permits
           rdf:resource="http://creativecommons.org/ns#DerivativeWorks" />
      </cc:License>
    </rdf:RDF>
  </metadata>
</svg>
